0
SECTION
2
HEADER
9
$INSUNITS
70
4
0
ENDSEC
0
SECTION
2
TABLES
0
TABLE
2
LTYPE
0
LTYPE
72
65
70
64
2
CONTINUOUS
3
______
73
0
40
0
0
ENDTAB
0
TABLE
2
LAYER
0
ENDTAB
0
ENDSEC
0
SECTION
2
ENTITIES
0
LINE
8
0
10
90.4694761
20
-109.2961881
11
81.9607154
21
-61.0406082
0
LINE
8
0
10
84.3941941
20
-57.5652404
11
95.7584928
21
-55.5614079
0
LINE
8
0
10
97.2451494
20
-54.8362306
11
100.1726037
21
-52.1998409
0
LINE
8
0
10
101.6592603
20
-51.4746636
11
117.3016308
21
-48.7164915
0
LINE
8
0
10
119.7249835
20
-45.1866436
11
119.2770896
21
-42.8948876
0
LINE
8
0
10
121.9130094
20
-39.3353545
11
138.5049801
21
-37.6207411
0
LINE
8
0
10
141.0838809
20
-35.4512639
11
141.3629782
21
-34.4620661
0
LINE
8
0
10
144.2031346
20
-32.2770676
11
159.6686755
21
-32.0341155
0
LINE
8
0
10
162.7150155
20
-34.9652575
11
162.8295456
21
-39.9807539
0
LINE
8
0
10
165.8235278
20
-42.9122615
11
178.5031789
21
-42.9343916
0
LINE
8
0
10
181.4963759
20
-46.0313422
11
181.4214734
21
-48.3477715
0
LINE
8
0
10
184.4146704
20
-51.4447221
11
217.4814521
21
-51.5024346
0
LINE
8
0
10
220.4762116
20
-54.5076659
11
220.3857006
21
-106.3665732
0
LINE
8
0
10
220.3984368
20
-106.6480017
11
222.3190159
21
-127.4207091
0
LINE
8
0
10
221.7086255
20
-129.5273373
11
211.5023957
21
-142.780397
0
LINE
8
0
10
207.2224429
20
-143.2690715
11
196.3750273
21
-134.3675774
0
LINE
8
0
10
195.4728328
20
-133.8585749
11
179.4976271
21
-128.2048355
0
LINE
8
0
10
179.2782513
20
-128.1365301
11
158.6667765
21
-122.5751274
0
LINE
8
0
10
157.7114493
20
-122.1248052
11
130.8844211
21
-103.076379
0
LINE
8
0
10
128.6266357
20
-102.5680513
11
114.6597047
21
-105.0307981
0
LINE
8
0
10
112.9153011
20
-106.0184481
11
111.1867712
21
-108.0093852
0
LINE
8
0
10
109.4423676
20
-108.9970352
11
93.9448439
21
-111.7296668
0
ARC
8
0
10
84.9151387
20
-60.5196637
40
3
50
100.0000008
51
190.0000008
0
ARC
8
0
10
95.2375482
20
-52.6069846
40
3
50
280.0000008
51
312.0053804
0
ARC
8
0
10
102.1802049
20
-54.4290869
40
3
50
100.0000008
51
132.0053804
0
ARC
8
0
10
116.7806862
20
-45.7620683
40
3
50
280.0000008
51
11.0583279
0
ARC
8
0
10
122.2213869
20
-42.319463
40
3
50
95.899998
51
191.0583279
0
ARC
8
0
10
138.1966026
20
-34.6366326
40
3
50
275.899998
51
344.2438477
0
ARC
8
0
10
144.2502565
20
-35.2766975
40
3
50
90.899999
51
164.2438477
0
ARC
8
0
10
159.7157974
20
-35.0337454
40
3
50
1.3081362
51
90.899999
0
ARC
8
0
10
165.8287637
20
-39.9122661
40
3
50
181.3081362
51
269.9000016
0
ARC
8
0
10
178.497943
20
-45.934387
40
3
50
358.1479695
51
89.9000016
0
ARC
8
0
10
184.4199063
20
-48.4447267
40
3
50
178.1479695
51
269.9000016
0
ARC
8
0
10
217.4762162
20
-54.50243
40
3
50
359.9000016
51
89.9000016
0
ARC
8
0
10
223.385696
20
-106.3718091
40
3
50
179.9000016
51
185.28237
0
ARC
8
0
10
219.3317567
20
-127.6969016
40
3
50
322.3999968
51
5.28237
0
ARC
8
0
10
209.1255268
20
-140.9499614
40
3
50
230.6273706
51
322.3999968
0
ARC
8
0
10
194.4719434
20
-136.6866875
40
3
50
50.6273706
51
70.5107622
0
ARC
8
0
10
178.4967377
20
-131.032948
40
3
50
70.5107622
51
74.9
0
ARC
8
0
10
159.44829
20
-119.6787095
40
3
50
234.6234912
51
254.9
0
ARC
8
0
10
129.1475803
20
-105.5224746
40
3
50
54.6234912
51
100.0000008
0
ARC
8
0
10
115.1806493
20
-107.9852214
40
3
50
100.0000008
51
139.0355149
0
ARC
8
0
10
108.921423
20
-106.0426119
40
3
50
280.0000008
51
319.0355149
0
ARC
8
0
10
93.4238994
20
-108.7752436
40
3
50
190.0000008
51
280.0000008
0
ENDSEC
0
EOF