0
SECTION
2
HEADER
9
$INSUNITS
70
4
0
ENDSEC
0
SECTION
2
TABLES
0
TABLE
2
LTYPE
0
LTYPE
72
65
70
64
2
CONTINUOUS
3
______
73
0
40
0
0
ENDTAB
0
TABLE
2
LAYER
0
ENDTAB
0
ENDSEC
0
SECTION
2
ENTITIES
0
LINE
8
0
10
90.4694761
20
-109.2961881
11
81.9607154
21
-61.0406082
0
LINE
8
0
10
84.3941941
20
-57.5652404
11
95.7584928
21
-55.5614079
0
LINE
8
0
10
97.2451494
20
-54.8362306
11
100.1726037
21
-52.1998409
0
LINE
8
0
10
101.6592603
20
-51.4746636
11
117.3016308
21
-48.7164915
0
LINE
8
0
10
119.7249835
20
-45.1866436
11
119.2770896
21
-42.8948876
0
LINE
8
0
10
121.9130094
20
-39.3353545
11
138.5049801
21
-37.6207411
0
LINE
8
0
10
141.0838809
20
-35.4512639
11
141.3629782
21
-34.4620661
0
LINE
8
0
10
144.2031346
20
-32.2770676
11
159.6686755
21
-32.0341155
0
LINE
8
0
10
162.7150155
20
-34.9652575
11
162.8295456
21
-39.9807539
0
LINE
8
0
10
165.8235278
20
-42.9122615
11
178.5031789
21
-42.9343916
0
LINE
8
0
10
181.4963759
20
-46.0313422
11
181.4214734
21
-48.3477715
0
LINE
8
0
10
184.4146704
20
-51.4447221
11
217.4814521
21
-51.5024346
0
LINE
8
0
10
220.4762116
20
-54.5076659
11
220.3857006
21
-106.3665732
0
LINE
8
0
10
220.3984368
20
-106.6480017
11
222.3190159
21
-127.4207091
0
LINE
8
0
10
221.7086255
20
-129.5273373
11
211.5023957
21
-142.780397
0
LINE
8
0
10
207.2224429
20
-143.2690715
11
196.3750273
21
-134.3675774
0
LINE
8
0
10
195.4728328
20
-133.8585749
11
179.4976271
21
-128.2048355
0
LINE
8
0
10
179.2782513
20
-128.1365301
11
158.6667765
21
-122.5751274
0
LINE
8
0
10
157.7114493
20
-122.1248052
11
130.8844211
21
-103.076379
0
LINE
8
0
10
128.6266357
20
-102.5680513
11
114.6597047
21
-105.0307981
0
LINE
8
0
10
112.9153011
20
-106.0184481
11
111.1867712
21
-108.0093852
0
LINE
8
0
10
109.4423676
20
-108.9970352
11
93.9448439
21
-111.7296668
0
ARC
8
0
10
84.9151387
20
-60.5196637
40
3
50
100.0000008
51
190.0000008
0
ARC
8
0
10
95.2375482
20
-52.6069846
40
3
50
280.0000008
51
312.0053804
0
ARC
8
0
10
102.1802049
20
-54.4290869
40
3
50
100.0000008
51
132.0053804
0
ARC
8
0
10
116.7806862
20
-45.7620683
40
3
50
280.0000008
51
11.0583279
0
ARC
8
0
10
122.2213869
20
-42.319463
40
3
50
95.899998
51
191.0583279
0
ARC
8
0
10
138.1966026
20
-34.6366326
40
3
50
275.899998
51
344.2438477
0
ARC
8
0
10
144.2502565
20
-35.2766975
40
3
50
90.899999
51
164.2438477
0
ARC
8
0
10
159.7157974
20
-35.0337454
40
3
50
1.3081362
51
90.899999
0
ARC
8
0
10
165.8287637
20
-39.9122661
40
3
50
181.3081362
51
269.9000016
0
ARC
8
0
10
178.497943
20
-45.934387
40
3
50
358.1479695
51
89.9000016
0
ARC
8
0
10
184.4199063
20
-48.4447267
40
3
50
178.1479695
51
269.9000016
0
ARC
8
0
10
217.4762162
20
-54.50243
40
3
50
359.9000016
51
89.9000016
0
ARC
8
0
10
223.385696
20
-106.3718091
40
3
50
179.9000016
51
185.28237
0
ARC
8
0
10
219.3317567
20
-127.6969016
40
3
50
322.3999968
51
5.28237
0
ARC
8
0
10
209.1255268
20
-140.9499614
40
3
50
230.6273706
51
322.3999968
0
ARC
8
0
10
194.4719434
20
-136.6866875
40
3
50
50.6273706
51
70.5107622
0
ARC
8
0
10
178.4967377
20
-131.032948
40
3
50
70.5107622
51
74.9
0
ARC
8
0
10
159.44829
20
-119.6787095
40
3
50
234.6234912
51
254.9
0
ARC
8
0
10
129.1475803
20
-105.5224746
40
3
50
54.6234912
51
100.0000008
0
ARC
8
0
10
115.1806493
20
-107.9852214
40
3
50
100.0000008
51
139.0355149
0
ARC
8
0
10
108.921423
20
-106.0426119
40
3
50
280.0000008
51
319.0355149
0
ARC
8
0
10
93.4238994
20
-108.7752436
40
3
50
190.0000008
51
280.0000008
0
LINE
8
0
10
92.8155296
20
-109.6440855
11
110.0496653
21
-106.6052424
0
LINE
8
0
10
110.0496653
20
-106.6052424
11
107.1844704
21
-90.3559145
0
LINE
8
0
10
107.1844704
20
-90.3559145
11
89.9503347
21
-93.3947576
0
LINE
8
0
10
89.9503347
20
-93.3947576
11
92.8155296
21
-109.6440855
0
LINE
8
0
10
89.8635106
20
-92.9023537
11
107.0976463
21
-89.8635106
0
LINE
8
0
10
107.0976463
20
-89.8635106
11
104.2324514
21
-73.6141827
0
LINE
8
0
10
104.2324514
20
-73.6141827
11
86.9983157
21
-76.6530258
0
LINE
8
0
10
86.9983157
20
-76.6530258
11
89.8635106
21
-92.9023537
0
LINE
8
0
10
86.9114916
20
-76.1606219
11
104.1456273
21
-73.1217788
0
LINE
8
0
10
104.1456273
20
-73.1217788
11
101.2804324
21
-56.8724509
0
LINE
8
0
10
101.2804324
20
-56.8724509
11
84.0462967
21
-59.911294
0
LINE
8
0
10
84.0462967
20
-59.911294
11
86.9114916
21
-76.1606219
0
LINE
8
0
10
110.0211246
20
-103.563995
11
127.2552603
21
-100.5251519
0
LINE
8
0
10
127.2552603
20
-100.5251519
11
124.3900654
21
-84.275824
0
LINE
8
0
10
124.3900654
20
-84.275824
11
107.1559297
21
-87.3146671
0
LINE
8
0
10
107.1559297
20
-87.3146671
11
110.0211246
21
-103.563995
0
LINE
8
0
10
107.0691056
20
-86.8222632
11
124.3032413
21
-83.7834201
0
LINE
8
0
10
124.3032413
20
-83.7834201
11
121.4380464
21
-67.5340922
0
LINE
8
0
10
121.4380464
20
-67.5340922
11
104.2039107
21
-70.5729353
0
LINE
8
0
10
104.2039107
20
-70.5729353
11
107.0691056
21
-86.8222632
0
LINE
8
0
10
104.1170866
20
-70.0805314
11
121.3512223
21
-67.0416883
0
LINE
8
0
10
121.3512223
20
-67.0416883
11
118.4860274
21
-50.7923604
0
LINE
8
0
10
118.4860274
20
-50.7923604
11
101.2518917
21
-53.8312035
0
LINE
8
0
10
101.2518917
20
-53.8312035
11
104.1170866
21
-70.0805314
0
LINE
8
0
10
126.3077668
20
-91.9121149
11
143.7150661
21
-90.1132455
0
LINE
8
0
10
143.7150661
20
-90.1132455
11
142.0189892
21
-73.7006491
0
LINE
8
0
10
142.0189892
20
-73.7006491
11
124.6116899
21
-75.4995185
0
LINE
8
0
10
124.6116899
20
-75.4995185
11
126.3077668
21
-91.9121149
0
LINE
8
0
10
124.5602937
20
-75.002167
11
141.967593
21
-73.2032976
0
LINE
8
0
10
141.967593
20
-73.2032976
11
140.2715161
21
-56.7907012
0
LINE
8
0
10
140.2715161
20
-56.7907012
11
122.8642168
21
-58.5895706
0
LINE
8
0
10
122.8642168
20
-58.5895706
11
124.5602937
21
-75.002167
0
LINE
8
0
10
122.8128206
20
-58.0922191
11
140.2201199
21
-56.2933497
0
LINE
8
0
10
140.2201199
20
-56.2933497
11
138.524043
21
-39.8807533
0
LINE
8
0
10
138.524043
20
-39.8807533
11
121.1167437
21
-41.6796227
0
LINE
8
0
10
121.1167437
20
-41.6796227
11
122.8128206
21
-58.0922191
0
LINE
8
0
10
143.7280113
20
-85.0410399
11
161.2258524
21
-84.7661619
0
LINE
8
0
10
161.2258524
20
-84.7661619
11
160.9666817
21
-68.2681975
0
LINE
8
0
10
160.9666817
20
-68.2681975
11
143.4688406
21
-68.5430755
0
LINE
8
0
10
143.4688406
20
-68.5430755
11
143.7280113
21
-85.0410399
0
LINE
8
0
10
143.4609869
20
-68.0431371
11
160.958828
21
-67.7682591
0
LINE
8
0
10
160.958828
20
-67.7682591
11
160.6996573
21
-51.2702947
0
LINE
8
0
10
160.6996573
20
-51.2702947
11
143.2018162
21
-51.5451727
0
LINE
8
0
10
143.2018162
20
-51.5451727
11
143.4609869
21
-68.0431371
0
LINE
8
0
10
143.1939625
20
-51.0452343
11
160.6918036
21
-50.7703563
0
LINE
8
0
10
160.6918036
20
-50.7703563
11
160.4326329
21
-34.2723919
0
LINE
8
0
10
160.4326329
20
-34.2723919
11
142.9347918
21
-34.5472699
0
LINE
8
0
10
142.9347918
20
-34.5472699
11
143.1939625
21
-51.0452343
0
LINE
8
0
10
161.7543061
20
-95.6552396
11
179.2542794
21
-95.6857829
0
LINE
8
0
10
179.2542794
20
-95.6857829
11
179.2830773
21
-79.185808
0
LINE
8
0
10
179.2830773
20
-79.185808
11
161.783104
21
-79.1552647
0
LINE
8
0
10
161.783104
20
-79.1552647
11
161.7543061
21
-95.6552396
0
LINE
8
0
10
161.7839767
20
-78.6552655
11
179.28395
21
-78.6858088
0
LINE
8
0
10
179.28395
20
-78.6858088
11
179.3127479
21
-62.1858339
0
LINE
8
0
10
179.3127479
20
-62.1858339
11
161.8127746
21
-62.1552906
0
LINE
8
0
10
161.8127746
20
-62.1552906
11
161.7839767
21
-78.6552655
0
LINE
8
0
10
161.8136473
20
-61.6552914
11
179.3136206
21
-61.6858347
0
LINE
8
0
10
179.3136206
20
-61.6858347
11
179.3424185
21
-45.1858598
0
LINE
8
0
10
179.3424185
20
-45.1858598
11
161.8424452
21
-45.1553165
0
LINE
8
0
10
161.8424452
20
-45.1553165
11
161.8136473
21
-61.6552914
0
LINE
8
0
10
179.7394434
20
-104.1866426
11
197.2394167
21
-104.2171859
0
LINE
8
0
10
197.2394167
20
-104.2171859
11
197.2682146
21
-87.717211
0
LINE
8
0
10
197.2682146
20
-87.717211
11
179.7682413
21
-87.6866677
0
LINE
8
0
10
179.7682413
20
-87.6866677
11
179.7394434
21
-104.1866426
0
LINE
8
0
10
179.769114
20
-87.1866685
11
197.2690873
21
-87.2172118
0
LINE
8
0
10
197.2690873
20
-87.2172118
11
197.2978852
21
-70.7172369
0
LINE
8
0
10
197.2978852
20
-70.7172369
11
179.7979119
21
-70.6866936
0
LINE
8
0
10
179.7979119
20
-70.6866936
11
179.769114
21
-87.1866685
0
LINE
8
0
10
179.7987846
20
-70.1866944
11
197.2987579
21
-70.2172377
0
LINE
8
0
10
197.2987579
20
-70.2172377
11
197.3275558
21
-53.7172628
0
LINE
8
0
10
197.3275558
20
-53.7172628
11
179.8275825
21
-53.6867195
0
LINE
8
0
10
179.8275825
20
-53.6867195
11
179.7987846
21
-70.1866944
0
LINE
8
0
10
160.9072992
20
-120.8492021
11
177.8030702
21
-125.408031
0
LINE
8
0
10
177.8030702
20
-125.408031
11
182.1013946
21
-109.4777325
0
LINE
8
0
10
182.1013946
20
-109.4777325
11
165.2056236
21
-104.9189036
0
LINE
8
0
10
165.2056236
20
-104.9189036
11
160.9072992
21
-120.8492021
0
LINE
8
0
10
178.5998011
20
-124.3669531
11
194.7559799
21
-131.0921213
0
LINE
8
0
10
194.7559799
20
-131.0921213
11
201.0968527
21
-115.8591527
0
LINE
8
0
10
201.0968527
20
-115.8591527
11
184.9406739
21
-109.1339845
0
LINE
8
0
10
184.9406739
20
-109.1339845
11
178.5998011
21
-124.3669531
0
LINE
8
0
10
195.3395414
20
-131.3989448
11
209.2046102
21
-142.0764851
0
LINE
8
0
10
209.2046102
20
-142.0764851
11
219.2720054
21
-129.003706
0
LINE
8
0
10
219.2720054
20
-129.003706
11
205.4069366
21
-118.3261657
0
LINE
8
0
10
205.4069366
20
-118.3261657
11
195.3395414
21
-131.3989448
0
ENDSEC
0
EOF