0
SECTION
2
HEADER
9
$INSUNITS
70
4
0
ENDSEC
0
SECTION
2
TABLES
0
TABLE
2
LTYPE
0
LTYPE
72
65
70
64
2
CONTINUOUS
3
______
73
0
40
0
0
ENDTAB
0
TABLE
2
LAYER
0
ENDTAB
0
ENDSEC
0
SECTION
2
ENTITIES
0
LINE
8
0
10
90.8775388
20
-111.6104271
11
112.5433094
21
-107.7901672
0
LINE
8
0
10
112.5433094
20
-107.7901672
11
112.0223649
21
-104.8357439
0
LINE
8
0
10
81.5526526
20
-58.7263692
11
90.8775388
21
-111.6104271
0
LINE
8
0
10
99.2791921
20
-55.600702
11
81.5526526
21
-58.7263692
0
LINE
8
0
10
112.0223649
20
-104.8357439
11
129.7489044
21
-101.7100767
0
LINE
8
0
10
129.7489044
20
-101.7100767
11
128.269135
21
-93.3178875
0
LINE
8
0
10
119.6081365
20
-48.9698808
11
98.7582476
21
-52.6462787
0
LINE
8
0
10
98.7582476
20
-52.6462787
11
99.2791921
21
-55.600702
0
LINE
8
0
10
128.269135
20
-93.3178875
11
146.1176093
21
-91.4734271
0
LINE
8
0
10
146.1176093
20
-91.4734271
11
145.6151812
21
-86.6115312
0
LINE
8
0
10
140.7651216
20
-39.6784733
11
140.5976625
21
-38.0580053
0
LINE
8
0
10
140.5976625
20
-38.0580053
11
118.7142005
21
-40.3194411
0
LINE
8
0
10
118.7142005
20
-40.3194411
11
119.6081365
21
-48.9698808
0
LINE
8
0
10
145.6151812
20
-86.6115312
11
159.5204682
21
-86.3930896
0
LINE
8
0
10
162.8287662
20
-43.5570957
11
162.6572245
21
-32.6373079
0
LINE
8
0
10
162.6572245
20
-32.6373079
11
140.6599386
21
-32.9828688
0
LINE
8
0
10
140.6599386
20
-32.9828688
11
140.7651216
21
-39.6784733
0
LINE
8
0
10
159.5015171
20
-97.2512501
11
177.5014897
21
-97.282666
0
LINE
8
0
10
159.5204682
20
-86.3930896
11
159.5015171
21
-97.2512501
0
LINE
8
0
10
181.5803722
20
-52.0898364
11
181.5952075
21
-43.5898493
0
LINE
8
0
10
181.5952075
20
-43.5898493
11
162.8287662
21
-43.5570957
0
LINE
8
0
10
177.4866544
20
-105.7826531
11
199.4866209
21
-105.8210503
0
LINE
8
0
10
199.4866209
20
-105.8210503
11
199.5162914
21
-88.8210762
0
LINE
8
0
10
177.5014897
20
-97.282666
11
177.4866544
21
-105.7826531
0
LINE
8
0
10
199.5162915
20
-88.8210762
11
199.545962
21
-71.8211021
0
LINE
8
0
10
199.5459621
20
-71.8211021
11
199.5803448
21
-52.1212523
0
LINE
8
0
10
199.5803448
20
-52.1212523
11
181.5803722
21
-52.0898364
0
LINE
8
0
10
158.3181942
20
-121.8077651
11
179.5585921
21
-127.5388643
0
LINE
8
0
10
179.5585921
20
-127.5388643
11
179.8108192
21
-126.6040692
0
LINE
8
0
10
182.9544355
20
-108.0507435
11
163.4501017
21
-102.7880703
0
LINE
8
0
10
163.4501017
20
-102.7880703
11
158.3181942
21
-121.8077651
0
LINE
8
0
10
179.8108192
20
-126.6040692
11
194.3496132
21
-132.6559851
0
LINE
8
0
10
202.4365179
20
-118.4956859
11
203.7889251
21
-115.2467363
0
LINE
8
0
10
203.7889251
20
-115.2467363
11
183.4783003
21
-106.7922392
0
LINE
8
0
10
183.4783003
20
-106.7922392
11
182.9544355
21
-108.0507435
0
LINE
8
0
10
194.3496132
20
-132.6559851
11
210.0110663
21
-144.7169276
0
LINE
8
0
10
210.0110663
20
-144.7169276
11
222.0308527
21
-129.1089168
0
LINE
8
0
10
222.0308527
20
-129.1089168
11
204.6004805
21
-115.6857232
0
LINE
8
0
10
204.6004805
20
-115.6857232
11
202.4365179
21
-118.4956859
0
ENDSEC
0
EOF