0
SECTION
2
HEADER
9
$INSUNITS
70
4
0
ENDSEC
0
SECTION
2
TABLES
0
TABLE
2
LTYPE
0
LTYPE
72
65
70
64
2
CONTINUOUS
3
______
73
0
40
0
0
ENDTAB
0
TABLE
2
LAYER
0
ENDTAB
0
ENDSEC
0
SECTION
2
ENTITIES
0
LINE
8
0
10
92.8155296
20
-109.6440855
11
110.0496653
21
-106.6052424
0
LINE
8
0
10
110.0496653
20
-106.6052424
11
107.1844704
21
-90.3559145
0
LINE
8
0
10
107.1844704
20
-90.3559145
11
89.9503347
21
-93.3947576
0
LINE
8
0
10
89.9503347
20
-93.3947576
11
92.8155296
21
-109.6440855
0
LINE
8
0
10
89.8635106
20
-92.9023537
11
107.0976463
21
-89.8635106
0
LINE
8
0
10
107.0976463
20
-89.8635106
11
104.2324514
21
-73.6141827
0
LINE
8
0
10
104.2324514
20
-73.6141827
11
86.9983157
21
-76.6530258
0
LINE
8
0
10
86.9983157
20
-76.6530258
11
89.8635106
21
-92.9023537
0
LINE
8
0
10
86.9114916
20
-76.1606219
11
104.1456273
21
-73.1217788
0
LINE
8
0
10
104.1456273
20
-73.1217788
11
101.2804324
21
-56.8724509
0
LINE
8
0
10
101.2804324
20
-56.8724509
11
84.0462967
21
-59.911294
0
LINE
8
0
10
84.0462967
20
-59.911294
11
86.9114916
21
-76.1606219
0
LINE
8
0
10
110.0211246
20
-103.563995
11
127.2552603
21
-100.5251519
0
LINE
8
0
10
127.2552603
20
-100.5251519
11
124.3900654
21
-84.275824
0
LINE
8
0
10
124.3900654
20
-84.275824
11
107.1559297
21
-87.3146671
0
LINE
8
0
10
107.1559297
20
-87.3146671
11
110.0211246
21
-103.563995
0
LINE
8
0
10
107.0691056
20
-86.8222632
11
124.3032413
21
-83.7834201
0
LINE
8
0
10
124.3032413
20
-83.7834201
11
121.4380464
21
-67.5340922
0
LINE
8
0
10
121.4380464
20
-67.5340922
11
104.2039107
21
-70.5729353
0
LINE
8
0
10
104.2039107
20
-70.5729353
11
107.0691056
21
-86.8222632
0
LINE
8
0
10
104.1170866
20
-70.0805314
11
121.3512223
21
-67.0416883
0
LINE
8
0
10
121.3512223
20
-67.0416883
11
118.4860274
21
-50.7923604
0
LINE
8
0
10
118.4860274
20
-50.7923604
11
101.2518917
21
-53.8312035
0
LINE
8
0
10
101.2518917
20
-53.8312035
11
104.1170866
21
-70.0805314
0
LINE
8
0
10
126.3077668
20
-91.9121149
11
143.7150661
21
-90.1132455
0
LINE
8
0
10
143.7150661
20
-90.1132455
11
142.0189892
21
-73.7006491
0
LINE
8
0
10
142.0189892
20
-73.7006491
11
124.6116899
21
-75.4995185
0
LINE
8
0
10
124.6116899
20
-75.4995185
11
126.3077668
21
-91.9121149
0
LINE
8
0
10
124.5602937
20
-75.002167
11
141.967593
21
-73.2032976
0
LINE
8
0
10
141.967593
20
-73.2032976
11
140.2715161
21
-56.7907012
0
LINE
8
0
10
140.2715161
20
-56.7907012
11
122.8642168
21
-58.5895706
0
LINE
8
0
10
122.8642168
20
-58.5895706
11
124.5602937
21
-75.002167
0
LINE
8
0
10
122.8128206
20
-58.0922191
11
140.2201199
21
-56.2933497
0
LINE
8
0
10
140.2201199
20
-56.2933497
11
138.524043
21
-39.8807533
0
LINE
8
0
10
138.524043
20
-39.8807533
11
121.1167437
21
-41.6796227
0
LINE
8
0
10
121.1167437
20
-41.6796227
11
122.8128206
21
-58.0922191
0
LINE
8
0
10
143.7280113
20
-85.0410399
11
161.2258524
21
-84.7661619
0
LINE
8
0
10
161.2258524
20
-84.7661619
11
160.9666817
21
-68.2681975
0
LINE
8
0
10
160.9666817
20
-68.2681975
11
143.4688406
21
-68.5430755
0
LINE
8
0
10
143.4688406
20
-68.5430755
11
143.7280113
21
-85.0410399
0
LINE
8
0
10
143.4609869
20
-68.0431371
11
160.958828
21
-67.7682591
0
LINE
8
0
10
160.958828
20
-67.7682591
11
160.6996573
21
-51.2702947
0
LINE
8
0
10
160.6996573
20
-51.2702947
11
143.2018162
21
-51.5451727
0
LINE
8
0
10
143.2018162
20
-51.5451727
11
143.4609869
21
-68.0431371
0
LINE
8
0
10
143.1939625
20
-51.0452343
11
160.6918036
21
-50.7703563
0
LINE
8
0
10
160.6918036
20
-50.7703563
11
160.4326329
21
-34.2723919
0
LINE
8
0
10
160.4326329
20
-34.2723919
11
142.9347918
21
-34.5472699
0
LINE
8
0
10
142.9347918
20
-34.5472699
11
143.1939625
21
-51.0452343
0
LINE
8
0
10
161.7543061
20
-95.6552396
11
179.2542794
21
-95.6857829
0
LINE
8
0
10
179.2542794
20
-95.6857829
11
179.2830773
21
-79.185808
0
LINE
8
0
10
179.2830773
20
-79.185808
11
161.783104
21
-79.1552647
0
LINE
8
0
10
161.783104
20
-79.1552647
11
161.7543061
21
-95.6552396
0
LINE
8
0
10
161.7839767
20
-78.6552655
11
179.28395
21
-78.6858088
0
LINE
8
0
10
179.28395
20
-78.6858088
11
179.3127479
21
-62.1858339
0
LINE
8
0
10
179.3127479
20
-62.1858339
11
161.8127746
21
-62.1552906
0
LINE
8
0
10
161.8127746
20
-62.1552906
11
161.7839767
21
-78.6552655
0
LINE
8
0
10
161.8136473
20
-61.6552914
11
179.3136206
21
-61.6858347
0
LINE
8
0
10
179.3136206
20
-61.6858347
11
179.3424185
21
-45.1858598
0
LINE
8
0
10
179.3424185
20
-45.1858598
11
161.8424452
21
-45.1553165
0
LINE
8
0
10
161.8424452
20
-45.1553165
11
161.8136473
21
-61.6552914
0
LINE
8
0
10
179.7394434
20
-104.1866426
11
197.2394167
21
-104.2171859
0
LINE
8
0
10
197.2394167
20
-104.2171859
11
197.2682146
21
-87.717211
0
LINE
8
0
10
197.2682146
20
-87.717211
11
179.7682413
21
-87.6866677
0
LINE
8
0
10
179.7682413
20
-87.6866677
11
179.7394434
21
-104.1866426
0
LINE
8
0
10
179.769114
20
-87.1866685
11
197.2690873
21
-87.2172118
0
LINE
8
0
10
197.2690873
20
-87.2172118
11
197.2978852
21
-70.7172369
0
LINE
8
0
10
197.2978852
20
-70.7172369
11
179.7979119
21
-70.6866936
0
LINE
8
0
10
179.7979119
20
-70.6866936
11
179.769114
21
-87.1866685
0
LINE
8
0
10
179.7987846
20
-70.1866944
11
197.2987579
21
-70.2172377
0
LINE
8
0
10
197.2987579
20
-70.2172377
11
197.3275558
21
-53.7172628
0
LINE
8
0
10
197.3275558
20
-53.7172628
11
179.8275825
21
-53.6867195
0
LINE
8
0
10
179.8275825
20
-53.6867195
11
179.7987846
21
-70.1866944
0
LINE
8
0
10
160.9072992
20
-120.8492021
11
177.8030702
21
-125.408031
0
LINE
8
0
10
177.8030702
20
-125.408031
11
182.1013946
21
-109.4777325
0
LINE
8
0
10
182.1013946
20
-109.4777325
11
165.2056236
21
-104.9189036
0
LINE
8
0
10
165.2056236
20
-104.9189036
11
160.9072992
21
-120.8492021
0
LINE
8
0
10
178.5998011
20
-124.3669531
11
194.7559799
21
-131.0921213
0
LINE
8
0
10
194.7559799
20
-131.0921213
11
201.0968527
21
-115.8591527
0
LINE
8
0
10
201.0968527
20
-115.8591527
11
184.9406739
21
-109.1339845
0
LINE
8
0
10
184.9406739
20
-109.1339845
11
178.5998011
21
-124.3669531
0
LINE
8
0
10
195.3395414
20
-131.3989448
11
209.2046102
21
-142.0764851
0
LINE
8
0
10
209.2046102
20
-142.0764851
11
219.2720054
21
-129.003706
0
LINE
8
0
10
219.2720054
20
-129.003706
11
205.4069366
21
-118.3261657
0
LINE
8
0
10
205.4069366
20
-118.3261657
11
195.3395414
21
-131.3989448
0
ENDSEC
0
EOF