%TF.GenerationSoftware,KiCad,Pcbnew,7.0.7*%
%TF.CreationDate,2024-02-04T11:46:41-06:00*%
%TF.ProjectId,main,6d61696e-2e6b-4696-9361-645f70636258,v1.0.0*%
%TF.SameCoordinates,Original*%
%TF.FileFunction,Copper,L1,Top*%
%TF.FilePolarity,Positive*%
%FSLAX46Y46*%
G04 Gerber Fmt 4.6, Leading zero omitted, Abs format (unit mm)*
G04 Created by KiCad (PCBNEW 7.0.7) date 2024-02-04 11:46:41*
%MOMM*%
%LPD*%
G01*
G04 APERTURE LIST*
G04 Aperture macros list*
%AMHorizOval*
0 Thick line with rounded ends*
0 $1 width*
0 $2 $3 position (X,Y) of the first rounded end (center of the circle)*
0 $4 $5 position (X,Y) of the second rounded end (center of the circle)*
0 Add line between two ends*
20,1,$1,$2,$3,$4,$5,0*
0 Add two circle primitives to create the rounded ends*
1,1,$1,$2,$3*
1,1,$1,$4,$5*%
%AMRotRect*
0 Rectangle, with rotation*
0 The origin of the aperture is its center*
0 $1 length*
0 $2 width*
0 $3 Rotation angle, in degrees counterclockwise*
0 Add horizontal line*
21,1,$1,$2,0,0,$3*%
%AMFreePoly0*
4,1,6,1.300000,-0.250000,0.050000,-1.300000,-1.300000,-1.300000,-1.300000,1.300000,1.300000,1.300000,1.300000,-0.250000,1.300000,-0.250000,$1*%
%AMFreePoly1*
4,1,6,0.250000,0.000000,-0.250000,-0.625000,-0.500000,-0.625000,-0.500000,0.625000,-0.250000,0.625000,0.250000,0.000000,0.250000,0.000000,$1*%
%AMFreePoly2*
4,1,6,0.500000,-0.625000,-0.650000,-0.625000,-0.150000,0.000000,-0.650000,0.625000,0.500000,0.625000,0.500000,-0.625000,0.500000,-0.625000,$1*%
%AMFreePoly3*
4,1,6,1.300000,-1.300000,-1.300000,-1.300000,-1.300000,0.250000,-0.050000,1.300000,1.300000,1.300000,1.300000,-1.300000,1.300000,-1.300000,$1*%
G04 Aperture macros list end*
%TA.AperFunction,ConnectorPad*%
%ADD10FreePoly0,179.900000*%
%TD*%
%TA.AperFunction,SMDPad,CuDef*%
%ADD11RotRect,1.600000X2.600000X179.900000*%
%TD*%
%TA.AperFunction,ConnectorPad*%
%ADD12FreePoly0,180.900000*%
%TD*%
%TA.AperFunction,SMDPad,CuDef*%
%ADD13RotRect,1.600000X2.600000X180.900000*%
%TD*%
%TA.AperFunction,SMDPad,CuDef*%
%ADD14RotRect,0.900000X1.200000X269.900000*%
%TD*%
%TA.AperFunction,SMDPad,CuDef*%
%ADD15RotRect,0.900000X1.200000X270.900000*%
%TD*%
%TA.AperFunction,SMDPad,CuDef*%
%ADD16RotRect,0.900000X1.200000X280.000000*%
%TD*%
%TA.AperFunction,ConnectorPad*%
%ADD17FreePoly0,190.000000*%
%TD*%
%TA.AperFunction,SMDPad,CuDef*%
%ADD18RotRect,1.600000X2.600000X190.000000*%
%TD*%
%TA.AperFunction,ConnectorPad*%
%ADD19FreePoly0,157.400000*%
%TD*%
%TA.AperFunction,SMDPad,CuDef*%
%ADD20RotRect,1.600000X2.600000X157.400000*%
%TD*%
%TA.AperFunction,ConnectorPad*%
%ADD21FreePoly0,185.900000*%
%TD*%
%TA.AperFunction,SMDPad,CuDef*%
%ADD22RotRect,1.600000X2.600000X185.900000*%
%TD*%
%TA.AperFunction,SMDPad,CuDef*%
%ADD23RotRect,0.900000X1.200000X275.900000*%
%TD*%
%TA.AperFunction,ConnectorPad*%
%ADD24FreePoly0,164.900000*%
%TD*%
%TA.AperFunction,SMDPad,CuDef*%
%ADD25RotRect,1.600000X2.600000X164.900000*%
%TD*%
%TA.AperFunction,SMDPad,CuDef*%
%ADD26RotRect,0.900000X1.200000X254.900000*%
%TD*%
%TA.AperFunction,SMDPad,CuDef*%
%ADD27RotRect,0.900000X1.200000X232.400000*%
%TD*%
%TA.AperFunction,ConnectorPad*%
%ADD28FreePoly0,142.400000*%
%TD*%
%TA.AperFunction,SMDPad,CuDef*%
%ADD29RotRect,1.600000X2.600000X142.400000*%
%TD*%
%TA.AperFunction,SMDPad,CuDef*%
%ADD30RotRect,0.900000X1.200000X247.400000*%
%TD*%
%TA.AperFunction,ComponentPad*%
%ADD31HorizOval,1.800000X0.474999X-0.000812X-0.474999X0.000812X0*%
%TD*%
%TA.AperFunction,SMDPad,CuDef*%
%ADD32FreePoly1,359.902000*%
%TD*%
%TA.AperFunction,ComponentPad*%
%ADD33C,0.800000*%
%TD*%
%TA.AperFunction,SMDPad,CuDef*%
%ADD34FreePoly2,179.902000*%
%TD*%
%TA.AperFunction,ComponentPad*%
%ADD35HorizOval,1.800000X-0.474999X0.000812X0.474999X-0.000812X0*%
%TD*%
%TA.AperFunction,SMDPad,CuDef*%
%ADD36FreePoly2,359.902000*%
%TD*%
%TA.AperFunction,SMDPad,CuDef*%
%ADD37FreePoly1,179.902000*%
%TD*%
%TA.AperFunction,SMDPad,CuDef*%
%ADD38FreePoly3,0.100000*%
%TD*%
%TA.AperFunction,SMDPad,CuDef*%
%ADD39RotRect,1.600000X2.600000X0.100000*%
%TD*%
%TA.AperFunction,ViaPad*%
%ADD40C,0.800000*%
%TD*%
%TA.AperFunction,Conductor*%
%ADD41C,0.250000*%
%TD*%
G04 APERTURE END LIST*
D10*
%TO.P,S14,1*%
%TO.N,P4*%
X155583270Y-93723619D03*
D11*
%TO.P,S14,2*%
%TO.N,index_home*%
X166637093Y-91542908D03*
%TD*%
D12*
%TO.P,S11,1*%
%TO.N,P3*%
X137219472Y-83016248D03*
D13*
%TO.P,S11,2*%
%TO.N,middle_home*%
X148233552Y-80642954D03*
%TD*%
D14*
%TO.P,D35,1*%
%TO.N,P8*%
X166624151Y-84642868D03*
%TO.P,D35,2*%
%TO.N,index_home*%
X166618391Y-87942862D03*
%TD*%
D15*
%TO.P,D32,1*%
%TO.N,P8*%
X148100187Y-73744184D03*
%TO.P,D32,2*%
%TO.N,middle_home*%
X148152021Y-77043776D03*
%TD*%
D14*
%TO.P,D37,1*%
%TO.N,P9*%
X184579577Y-110174264D03*
%TO.P,D37,2*%
%TO.N,inner_bottom*%
X184573817Y-113474258D03*
%TD*%
D10*
%TO.P,S17,1*%
%TO.N,P5*%
X173568429Y-102255020D03*
D11*
%TO.P,S17,2*%
%TO.N,inner_home*%
X184622252Y-100074309D03*
%TD*%
D16*
%TO.P,D23,1*%
%TO.N,P8*%
X92453517Y-96169167D03*
%TO.P,D23,2*%
%TO.N,outer_home*%
X93026555Y-99419033D03*
%TD*%
D14*
%TO.P,D34,1*%
%TO.N,P9*%
X166594491Y-101642857D03*
%TO.P,D34,2*%
%TO.N,index_bottom*%
X166588731Y-104942851D03*
%TD*%
D17*
%TO.P,S3,1*%
%TO.N,P0*%
X80224217Y-90303633D03*
D18*
%TO.P,S3,2*%
%TO.N,outer_top*%
X90724317Y-86218243D03*
%TD*%
D19*
%TO.P,S20,1*%
%TO.N,P4*%
X172858546Y-141706377D03*
D20*
%TO.P,S20,2*%
%TO.N,middle_cluster*%
X183905469Y-143921777D03*
%TD*%
D10*
%TO.P,S18,1*%
%TO.N,P5*%
X173598083Y-85255039D03*
D11*
%TO.P,S18,2*%
%TO.N,inner_top*%
X184651906Y-83074328D03*
%TD*%
D21*
%TO.P,S8,1*%
%TO.N,P2*%
X118090188Y-89510374D03*
D22*
%TO.P,S8,2*%
%TO.N,ring_home*%
X128855510Y-86186171D03*
%TD*%
D23*
%TO.P,D30,1*%
%TO.N,P7*%
X126373875Y-62415334D03*
%TO.P,D30,2*%
%TO.N,ring_top*%
X126713091Y-65697854D03*
%TD*%
D14*
%TO.P,D38,1*%
%TO.N,P8*%
X184609277Y-93174310D03*
%TO.P,D38,2*%
%TO.N,inner_home*%
X184603517Y-96474304D03*
%TD*%
D16*
%TO.P,D27,1*%
%TO.N,P7*%
X106707121Y-73347354D03*
%TO.P,D27,2*%
%TO.N,pinky_top*%
X107280159Y-76597220D03*
%TD*%
D17*
%TO.P,S5,1*%
%TO.N,P1*%
X100381837Y-100965311D03*
D18*
%TO.P,S5,2*%
%TO.N,pinky_home*%
X110881937Y-96879921D03*
%TD*%
D23*
%TO.P,D29,1*%
%TO.N,P8*%
X128121358Y-79325282D03*
%TO.P,D29,2*%
%TO.N,ring_home*%
X128460574Y-82607802D03*
%TD*%
D14*
%TO.P,D36,1*%
%TO.N,P7*%
X166653841Y-67642922D03*
%TO.P,D36,2*%
%TO.N,index_top*%
X166648081Y-70942916D03*
%TD*%
D24*
%TO.P,S19,1*%
%TO.N,P3*%
X155112729Y-137413677D03*
D25*
%TO.P,S19,2*%
%TO.N,left_cluster*%
X166354312Y-138168212D03*
%TD*%
D21*
%TO.P,S7,1*%
%TO.N,P2*%
X119837639Y-106420313D03*
D22*
%TO.P,S7,2*%
%TO.N,ring_bottom*%
X130602961Y-103096110D03*
%TD*%
D26*
%TO.P,D40,1*%
%TO.N,P10*%
X168127642Y-131499942D03*
%TO.P,D40,2*%
%TO.N,left_cluster*%
X167267978Y-134686002D03*
%TD*%
D15*
%TO.P,D33,1*%
%TO.N,P7*%
X147833182Y-56746251D03*
%TO.P,D33,2*%
%TO.N,middle_top*%
X147885016Y-60045843D03*
%TD*%
D16*
%TO.P,D24,1*%
%TO.N,P7*%
X89501521Y-79427429D03*
%TO.P,D24,2*%
%TO.N,outer_top*%
X90074559Y-82677295D03*
%TD*%
D23*
%TO.P,D28,1*%
%TO.N,P9*%
X129868813Y-96235221D03*
%TO.P,D28,2*%
%TO.N,ring_bottom*%
X130208029Y-99517741D03*
%TD*%
D27*
%TO.P,D42,1*%
%TO.N,P10*%
X203688266Y-149793043D03*
%TO.P,D42,2*%
%TO.N,right_cluster*%
X201674786Y-152407599D03*
%TD*%
D17*
%TO.P,S4,1*%
%TO.N,P1*%
X103333843Y-117707026D03*
D18*
%TO.P,S4,2*%
%TO.N,pinky_bottom*%
X113833943Y-113621636D03*
%TD*%
D17*
%TO.P,S2,1*%
%TO.N,P0*%
X83176223Y-107045364D03*
D18*
%TO.P,S2,2*%
%TO.N,outer_home*%
X93676323Y-102959974D03*
%TD*%
D14*
%TO.P,D39,1*%
%TO.N,P7*%
X184638957Y-76174313D03*
%TO.P,D39,2*%
%TO.N,inner_top*%
X184633197Y-79474307D03*
%TD*%
D12*
%TO.P,S12,1*%
%TO.N,P3*%
X136952445Y-66018339D03*
D13*
%TO.P,S12,2*%
%TO.N,middle_top*%
X147966525Y-63645045D03*
%TD*%
D17*
%TO.P,S6,1*%
%TO.N,P1*%
X97429806Y-84223540D03*
D18*
%TO.P,S6,2*%
%TO.N,pinky_top*%
X107929906Y-80138150D03*
%TD*%
D10*
%TO.P,S16,1*%
%TO.N,P5*%
X173538717Y-119254999D03*
D11*
%TO.P,S16,2*%
%TO.N,inner_bottom*%
X184592540Y-117074288D03*
%TD*%
D28*
%TO.P,S21,1*%
%TO.N,P5*%
X189400965Y-150276036D03*
D29*
%TO.P,S21,2*%
%TO.N,right_cluster*%
X199498085Y-155275103D03*
%TD*%
D16*
%TO.P,D22,1*%
%TO.N,P9*%
X95405560Y-112910875D03*
%TO.P,D22,2*%
%TO.N,outer_bottom*%
X95978598Y-116160741D03*
%TD*%
D15*
%TO.P,D31,1*%
%TO.N,P9*%
X148367203Y-90742095D03*
%TO.P,D31,2*%
%TO.N,middle_bottom*%
X148419037Y-94041687D03*
%TD*%
D17*
%TO.P,S1,1*%
%TO.N,P0*%
X86128251Y-123787126D03*
D18*
%TO.P,S1,2*%
%TO.N,outer_bottom*%
X96628351Y-119701736D03*
%TD*%
D16*
%TO.P,D25,1*%
%TO.N,P9*%
X112611159Y-106830801D03*
%TO.P,D25,2*%
%TO.N,pinky_bottom*%
X113184197Y-110080667D03*
%TD*%
D21*
%TO.P,S9,1*%
%TO.N,P2*%
X116342695Y-72600392D03*
D22*
%TO.P,S9,2*%
%TO.N,ring_top*%
X127108017Y-69276189D03*
%TD*%
D30*
%TO.P,D41,1*%
%TO.N,P10*%
X186534028Y-137542055D03*
%TO.P,D41,2*%
%TO.N,middle_cluster*%
X185265854Y-140588649D03*
%TD*%
D10*
%TO.P,S13,1*%
%TO.N,P4*%
X155553611Y-110723565D03*
D11*
%TO.P,S13,2*%
%TO.N,index_bottom*%
X166607434Y-108542854D03*
%TD*%
D12*
%TO.P,S10,1*%
%TO.N,P3*%
X137486510Y-100014142D03*
D13*
%TO.P,S10,2*%
%TO.N,middle_bottom*%
X148500590Y-97640848D03*
%TD*%
D31*
%TO.P,xiao,0*%
%TO.N,_1_0*%
X189149282Y-73426458D03*
D32*
X191624278Y-73430691D03*
D33*
%TO.N,P0*%
X193982274Y-73434724D03*
D34*
X202019262Y-73448470D03*
D31*
%TO.P,xiao,1*%
%TO.N,_1_1*%
X189144937Y-75966454D03*
D32*
X191619933Y-75970687D03*
D33*
%TO.N,P1*%
X193977930Y-75974720D03*
D34*
X202014918Y-75988467D03*
D31*
%TO.P,xiao,2*%
%TO.N,_1_2*%
X189140593Y-78506450D03*
D32*
X191607994Y-82950677D03*
D33*
%TO.N,P2*%
X193965991Y-82954710D03*
D34*
X202002979Y-82968456D03*
D31*
%TO.P,xiao,3*%
%TO.N,P3*%
X189136248Y-81046447D03*
%TO.P,xiao,4*%
%TO.N,P4*%
X189131904Y-83586443D03*
%TO.P,xiao,5*%
%TO.N,P5*%
X189127559Y-86126439D03*
%TO.P,xiao,6*%
%TO.N,P6*%
X189123215Y-88666435D03*
D35*
%TO.P,xiao,7*%
%TO.N,P7*%
X205313190Y-88694126D03*
%TO.P,xiao,8*%
%TO.N,P8*%
X205317535Y-86154130D03*
%TO.P,xiao,9*%
%TO.N,P9*%
X205321879Y-83614134D03*
%TO.P,xiao,10*%
%TO.N,P10*%
X205326224Y-81074137D03*
D36*
%TO.P,xiao,11*%
%TO.N,V3*%
X192452993Y-82952122D03*
D33*
X200489981Y-82965869D03*
D37*
%TO.N,_1_11*%
X202847978Y-82969902D03*
D35*
X205330568Y-78534141D03*
D36*
%TO.P,xiao,12*%
%TO.N,GND*%
X192464932Y-75972132D03*
D33*
X200501920Y-75985879D03*
D37*
%TO.N,_1_12*%
X202859917Y-75989912D03*
D35*
X205334913Y-75994145D03*
D36*
%TO.P,xiao,13*%
%TO.N,VCC*%
X192469276Y-73432136D03*
D33*
X200506265Y-73445883D03*
D37*
%TO.N,_1_13*%
X202864261Y-73449916D03*
D35*
X205339257Y-73454149D03*
%TD*%
D16*
%TO.P,D26,1*%
%TO.N,P8*%
X109659134Y-90089063D03*
%TO.P,D26,2*%
%TO.N,pinky_home*%
X110232172Y-93338929D03*
%TD*%
D38*
%TO.P,S15,1*%
%TO.N,P4*%
X155633708Y-76735075D03*
D39*
%TO.P,S15,2*%
%TO.N,index_top*%
X166679851Y-74515792D03*
%TD*%
D40*
%TO.N,P0*%
X85932353Y-104249485D03*
X82982085Y-87517594D03*
X88879159Y-120961657D03*
%TO.N,outer_bottom*%
X81985434Y-126417025D03*
%TO.N,outer_home*%
X79050426Y-109540285D03*
%TO.N,outer_top*%
X76091847Y-92820028D03*
%TO.N,P1*%
X103132735Y-98139833D03*
X100182458Y-81407945D03*
X106079556Y-114852043D03*
%TO.N,pinky_bottom*%
X99197975Y-120376326D03*
%TO.N,pinky_home*%
X96239595Y-103483403D03*
%TO.N,pinky_top*%
X93288756Y-86690685D03*
%TO.N,P2*%
X121045472Y-86961316D03*
X119263280Y-70004721D03*
X122810954Y-103758782D03*
%TO.N,ring_bottom*%
X115474952Y-108692370D03*
%TO.N,ring_home*%
X113623171Y-91360987D03*
%TO.N,ring_top*%
X112027789Y-74746737D03*
%TO.N,P3*%
X140651921Y-97664077D03*
X140221913Y-63744087D03*
X158824248Y-136076728D03*
X140501934Y-80674093D03*
%TO.N,middle_bottom*%
X133002051Y-101856471D03*
%TO.N,middle_home*%
X132746231Y-84908341D03*
%TO.N,middle_top*%
X132429535Y-67911283D03*
%TO.N,P4*%
X158851920Y-108414085D03*
X176743486Y-140850110D03*
X158851924Y-74394087D03*
X158851912Y-91444096D03*
%TO.N,index_bottom*%
X150931276Y-112534227D03*
%TO.N,index_home*%
X151071277Y-95524212D03*
%TO.N,index_top*%
X151121276Y-76934203D03*
%TO.N,P5*%
X193406642Y-150435119D03*
X176861905Y-116944089D03*
X176861911Y-99974087D03*
X176861913Y-82924108D03*
%TO.N,inner_bottom*%
X166801276Y-117094213D03*
%TO.N,inner_home*%
X169071272Y-102614222D03*
%TO.N,inner_top*%
X169071278Y-85984212D03*
%TO.N,left_cluster*%
X150200091Y-137970613D03*
%TO.N,middle_cluster*%
X167914294Y-141687654D03*
%TO.N,right_cluster*%
X184607637Y-148992924D03*
%TO.N,P9*%
X169050105Y-108184290D03*
X82135970Y-115202841D03*
X132782462Y-89898817D03*
X97090929Y-107964831D03*
X151080083Y-99824286D03*
X114299867Y-96322024D03*
%TO.N,P8*%
X132588686Y-72900623D03*
X79485753Y-98387589D03*
X151110094Y-82924294D03*
X112543817Y-79422993D03*
X169100098Y-90844298D03*
X94102418Y-91188909D03*
%TO.N,P7*%
X132383610Y-55914143D03*
X75607046Y-81891295D03*
X91162554Y-74516115D03*
X151040095Y-65484299D03*
X169130084Y-74514289D03*
X110814454Y-62682066D03*
%TO.N,P10*%
X192777668Y-141251403D03*
X173524579Y-132017124D03*
X155174083Y-128018034D03*
%TD*%
D41*
%TO.N,P0*%
X80224190Y-90303641D02*
X82061354Y-87679932D01*
X202020291Y-73452800D02*
X201260295Y-74292770D01*
X88879159Y-120961657D02*
X87997836Y-121117055D01*
X87997836Y-121117055D02*
X86128263Y-123787110D01*
X201260295Y-74292770D02*
X194820280Y-74282780D01*
X82061354Y-87679932D02*
X82982085Y-87517594D01*
X194820280Y-74282780D02*
X193980322Y-73432746D01*
X83176242Y-107045364D02*
X85021483Y-104410081D01*
X85021483Y-104410081D02*
X85932353Y-104249485D01*
%TO.N,outer_bottom*%
X81985434Y-126417025D02*
X82025599Y-126414451D01*
X82034341Y-126412906D02*
X81985434Y-126417025D01*
X93322871Y-124422423D02*
X82034341Y-126412906D01*
X96628382Y-119701721D02*
X96007574Y-116181040D01*
X96628366Y-119701725D02*
X93322871Y-124422423D01*
X82025599Y-126414451D02*
X82029965Y-126413678D01*
%TO.N,outer_home*%
X90370847Y-107680678D02*
X93676328Y-102959973D01*
X93676341Y-102959999D02*
X93055556Y-99439285D01*
X79050426Y-109540285D02*
X79206144Y-109649327D01*
X79206144Y-109649327D02*
X90370847Y-107680678D01*
%TO.N,outer_top*%
X87418832Y-90938966D02*
X90724326Y-86218249D01*
X90724335Y-86218241D02*
X90103553Y-82697572D01*
X76091847Y-92820028D02*
X76224394Y-92912838D01*
X76224394Y-92912838D02*
X87418832Y-90938966D01*
%TO.N,P1*%
X105227768Y-115002227D02*
X106079556Y-114852043D01*
X194820280Y-76822769D02*
X193980294Y-75972778D01*
X202010297Y-75992779D02*
X201260280Y-76832772D01*
X201260280Y-76832772D02*
X194820280Y-76822769D01*
X103333842Y-117707012D02*
X105227768Y-115002227D01*
X97429819Y-84223550D02*
X99291276Y-81565087D01*
X99291276Y-81565087D02*
X100182458Y-81407945D01*
X102251429Y-98295249D02*
X103132735Y-98139833D01*
X100381818Y-100965303D02*
X102251429Y-98295249D01*
%TO.N,pinky_bottom*%
X99226811Y-120335138D02*
X110528474Y-118342357D01*
X110528474Y-118342357D02*
X113833948Y-113621646D01*
X113833955Y-113621657D02*
X113213168Y-110100943D01*
X99197975Y-120376326D02*
X99226811Y-120335138D01*
%TO.N,pinky_home*%
X96372198Y-103576236D02*
X107576450Y-101600620D01*
X107576450Y-101600620D02*
X110881926Y-96879908D01*
X110881936Y-96879897D02*
X110261130Y-93359215D01*
X96239595Y-103483403D02*
X96372198Y-103576236D01*
%TO.N,pinky_top*%
X104624448Y-84858847D02*
X107929906Y-80138159D01*
X93288756Y-86690685D02*
X93479224Y-86824060D01*
X93479224Y-86824060D02*
X104624448Y-84858847D01*
X107929937Y-80138141D02*
X107309134Y-76617473D01*
%TO.N,P2*%
X121916780Y-103852763D02*
X122810954Y-103758782D01*
X194702234Y-83690898D02*
X193965975Y-82954628D01*
X202002932Y-82968494D02*
X201280575Y-83690908D01*
X120071437Y-87063702D02*
X121045472Y-86961316D01*
X116342680Y-72600423D02*
X118368456Y-70098765D01*
X201280575Y-83690908D02*
X194702234Y-83690898D01*
X118090166Y-89510366D02*
X120071437Y-87063702D01*
X119837623Y-106420315D02*
X121916780Y-103852763D01*
X118368456Y-70098765D02*
X119263280Y-70004721D01*
%TO.N,ring_bottom*%
X126988321Y-107559827D02*
X115696116Y-108746695D01*
X115696116Y-108746695D02*
X115474952Y-108692370D01*
X130602966Y-103096126D02*
X126988321Y-107559827D01*
X130602968Y-103096127D02*
X130296368Y-99591868D01*
X115542682Y-108762819D02*
X115619397Y-108754752D01*
X115474952Y-108692370D02*
X115542682Y-108762819D01*
%TO.N,ring_home*%
X114180568Y-91812350D02*
X125240871Y-90649873D01*
X113623171Y-91360987D02*
X114180568Y-91812350D01*
X125240871Y-90649873D02*
X128855510Y-86186154D01*
X128855488Y-86186158D02*
X128548892Y-82681917D01*
%TO.N,ring_top*%
X123493366Y-73739901D02*
X127108016Y-69276198D01*
X127108013Y-69276211D02*
X126801439Y-65771965D01*
X112027789Y-74746737D02*
X112244473Y-74922228D01*
X112244473Y-74922228D02*
X123493366Y-73739901D01*
%TO.N,P3*%
X139561607Y-80674074D02*
X140501934Y-80674093D01*
X137219472Y-83016236D02*
X139561607Y-80674074D01*
X157870855Y-135821244D02*
X158824248Y-136076728D01*
X137486500Y-100014128D02*
X139836535Y-97664089D01*
X139226698Y-63744083D02*
X140221913Y-63744087D01*
X155112717Y-137413677D02*
X157870855Y-135821244D01*
X139836535Y-97664089D02*
X140651921Y-97664077D01*
X136952440Y-66018331D02*
X139226698Y-63744083D01*
%TO.N,middle_bottom*%
X148500582Y-97640852D02*
X148500588Y-94123203D01*
X133243804Y-102098216D02*
X144043206Y-102098224D01*
X132954327Y-101987329D02*
X132944155Y-101977491D01*
X133002051Y-101856471D02*
X132954327Y-101987329D01*
X133002051Y-101856471D02*
X133243804Y-102098216D01*
X144043206Y-102098224D02*
X148500576Y-97640846D01*
%TO.N,middle_home*%
X143678285Y-85198215D02*
X133036100Y-85198214D01*
X148233548Y-80642935D02*
X143678285Y-85198215D01*
X133036100Y-85198214D02*
X132746231Y-84908341D01*
X148233551Y-80642914D02*
X148233589Y-77125310D01*
%TO.N,middle_top*%
X147966514Y-63645036D02*
X147966532Y-60127394D01*
X132876475Y-68358225D02*
X132429535Y-67911283D01*
X147966523Y-63645048D02*
X143253358Y-68358221D01*
X143253358Y-68358221D02*
X132876475Y-68358225D01*
%TO.N,P4*%
X156212318Y-93723643D02*
X158491864Y-91444096D01*
X157974725Y-74394090D02*
X158851924Y-74394087D01*
X175882448Y-140484656D02*
X176743486Y-140850110D01*
X158491864Y-91444096D02*
X158851912Y-91444096D01*
X155553598Y-110723576D02*
X157863091Y-108414094D01*
X172858538Y-141706373D02*
X175882448Y-140484656D01*
X155633707Y-76735093D02*
X157974725Y-74394090D01*
X157863091Y-108414094D02*
X158851920Y-108414085D01*
%TO.N,index_bottom*%
X162545995Y-112604292D02*
X151111427Y-112604296D01*
X166607433Y-108542864D02*
X162545995Y-112604292D01*
X150931276Y-112534227D02*
X150971286Y-112604285D01*
X151111427Y-112604296D02*
X150931276Y-112534227D01*
X166607446Y-108542890D02*
X166607422Y-104961558D01*
X150971286Y-112604285D02*
X151041351Y-112604290D01*
%TO.N,index_home*%
X151151413Y-95604346D02*
X162575673Y-95604351D01*
X151071277Y-95524212D02*
X151151413Y-95604346D01*
X166637109Y-91542910D02*
X166637105Y-87961604D01*
X162575673Y-95604351D02*
X166637087Y-91542929D01*
%TO.N,index_top*%
X166679881Y-74515814D02*
X162591298Y-78604379D01*
X152791438Y-78604381D02*
X151121276Y-76934203D01*
X162591298Y-78604379D02*
X152791438Y-78604381D01*
X166679853Y-74515823D02*
X166679858Y-70974706D01*
%TO.N,P5*%
X173538737Y-119255027D02*
X175849649Y-116944099D01*
X189400944Y-150276026D02*
X192686623Y-149872609D01*
X173568434Y-102255015D02*
X175849354Y-99974101D01*
X175849649Y-116944099D02*
X176861905Y-116944089D01*
X192686623Y-149872609D02*
X193406642Y-150435119D01*
X175929012Y-82924094D02*
X176861913Y-82924108D01*
X173598069Y-85255034D02*
X175929012Y-82924094D01*
X175849354Y-99974101D02*
X176861911Y-99974087D01*
%TO.N,inner_bottom*%
X184592571Y-117074319D02*
X184592575Y-113492954D01*
X184592539Y-117074284D02*
X180531113Y-121135723D01*
X180531113Y-121135723D02*
X170842769Y-121135719D01*
X170842769Y-121135719D02*
X166801276Y-117094213D01*
%TO.N,inner_home*%
X184622249Y-100074316D02*
X180560822Y-104135725D01*
X180560822Y-104135725D02*
X170602805Y-104135726D01*
X184622226Y-100074321D02*
X184622218Y-96492998D01*
X169081278Y-102614216D02*
X169071272Y-102614222D01*
X170602805Y-104135726D02*
X169081278Y-102614216D01*
%TO.N,inner_top*%
X180590481Y-87135738D02*
X170222819Y-87135760D01*
X170222819Y-87135760D02*
X169071278Y-85984212D01*
X184651904Y-83074367D02*
X184651895Y-79493051D01*
X184651905Y-83074325D02*
X180590481Y-87135738D01*
%TO.N,left_cluster*%
X150249255Y-138057574D02*
X150318114Y-138076039D01*
X150386963Y-138094482D02*
X150200091Y-137970613D01*
X150200091Y-137970613D02*
X150249255Y-138057574D01*
X166354304Y-138168221D02*
X161380089Y-141040079D01*
X161380089Y-141040079D02*
X150386963Y-138094482D01*
X166354295Y-138168191D02*
X167281202Y-134708929D01*
%TO.N,middle_cluster*%
X183905459Y-143921791D02*
X178202312Y-146226015D01*
X183905463Y-143921780D02*
X185292419Y-140654336D01*
X167997864Y-141894482D02*
X167914294Y-141687654D01*
X178202312Y-146226015D02*
X167997864Y-141894482D01*
%TO.N,right_cluster*%
X193630225Y-156099781D02*
X184656026Y-149337248D01*
X184656026Y-149337248D02*
X184607637Y-148992924D01*
X199498066Y-155275080D02*
X201683436Y-152477933D01*
X199498095Y-155275104D02*
X193630225Y-156099781D01*
%TO.N,P9*%
X168841280Y-107975490D02*
X169050105Y-108184290D01*
X114299867Y-96322024D02*
X111470633Y-100362588D01*
X152898666Y-101642841D02*
X152898646Y-101642855D01*
X166594489Y-101642851D02*
X168841284Y-103889647D01*
X149645902Y-93756709D02*
X149146512Y-93257316D01*
X195967168Y-110174270D02*
X184579586Y-110174273D01*
X207468391Y-85463223D02*
X207468394Y-98673035D01*
X111470633Y-100362588D02*
X112611162Y-106830808D01*
X184579591Y-110174271D02*
X171040072Y-110174278D01*
X115993586Y-97693576D02*
X114299867Y-96322024D01*
X149146512Y-93257316D02*
X148367208Y-93257318D01*
X151080083Y-99824286D02*
X151080094Y-98361301D01*
X171040072Y-110174278D02*
X169050105Y-108184290D01*
X132782462Y-89898817D02*
X132801298Y-89879295D01*
X95405559Y-112910882D02*
X82190539Y-115241057D01*
X95047918Y-110882545D02*
X95405563Y-112910883D01*
X205618492Y-83613315D02*
X207468391Y-85463223D01*
X132801298Y-89879295D02*
X147213241Y-89627748D01*
X97090929Y-107964831D02*
X95047918Y-110882545D01*
X166594489Y-101642851D02*
X152898666Y-101642841D01*
X168841284Y-103889647D02*
X168841280Y-107975490D01*
X148367208Y-93257318D02*
X148367210Y-90742095D01*
X151080094Y-98361301D02*
X149645899Y-96927111D01*
X129868827Y-96235228D02*
X129614078Y-93811458D01*
X97090929Y-107964831D02*
X98919269Y-109245046D01*
X129614078Y-93811458D02*
X132782462Y-89898817D01*
X147213241Y-89627748D02*
X148367204Y-90742073D01*
X129868826Y-96235215D02*
X115993586Y-97693576D01*
X98919269Y-109245046D02*
X112611160Y-106830802D01*
X149645899Y-96927111D02*
X149645902Y-93756709D01*
X152898646Y-101642855D02*
X151080083Y-99824286D01*
X207468394Y-98673035D02*
X195967168Y-110174270D01*
X82190539Y-115241057D02*
X82135970Y-115202841D01*
%TO.N,P8*%
X94102418Y-91188909D02*
X94845162Y-91708997D01*
X207012325Y-89204439D02*
X207012325Y-90674637D01*
X114226590Y-80785690D02*
X112543817Y-79422993D01*
X151110094Y-82924294D02*
X152828667Y-84642872D01*
X184609277Y-93174308D02*
X171430106Y-93174307D01*
X108737055Y-84859650D02*
X109659128Y-90089065D01*
X128121379Y-79325280D02*
X128036890Y-78521606D01*
X169100097Y-87118801D02*
X169100098Y-90844298D01*
X92083720Y-94071903D02*
X92453529Y-96169160D01*
X207012325Y-90674637D02*
X204512652Y-93174310D01*
X207018390Y-88189201D02*
X207013587Y-88464794D01*
X205514716Y-86165048D02*
X207018383Y-87722150D01*
X108527201Y-89296486D02*
X109659128Y-90089066D01*
X148270522Y-73744185D02*
X148270518Y-75453466D01*
X128036890Y-78521606D02*
X132588686Y-72900623D01*
X146997282Y-72679122D02*
X148100180Y-73744169D01*
X94102418Y-91188909D02*
X92083720Y-94071903D01*
X94845162Y-91708997D02*
X108527201Y-89296486D01*
X148270518Y-75453466D02*
X151110094Y-78293039D01*
X92453537Y-96169153D02*
X79485753Y-98387589D01*
X207018383Y-87722150D02*
X207018390Y-88189201D01*
X166624139Y-84642882D02*
X169100097Y-87118801D01*
X128121367Y-79325295D02*
X114226590Y-80785690D01*
X132588686Y-72900623D02*
X146997282Y-72679122D01*
X151110094Y-78293039D02*
X151110094Y-82924294D01*
X152828667Y-84642872D02*
X166624138Y-84642886D01*
X171430106Y-93174307D02*
X169100098Y-90844298D01*
X112543817Y-79422993D02*
X108737055Y-84859650D01*
X204512652Y-93174310D02*
X184609279Y-93174311D01*
X207013587Y-88464794D02*
X207012325Y-89204439D01*
%TO.N,P7*%
X132444662Y-55973080D02*
X146773491Y-55722978D01*
X153198710Y-67642916D02*
X166653832Y-67642910D01*
X148045049Y-56746276D02*
X151040089Y-59741303D01*
X75618147Y-81875445D02*
X75607046Y-81891295D01*
X169130084Y-74514289D02*
X170790105Y-76174307D01*
X151040089Y-59741303D02*
X151040095Y-65484299D01*
X89501516Y-79427436D02*
X75618147Y-81875445D01*
X110814454Y-62682066D02*
X106031098Y-69513406D01*
X106031098Y-69513406D02*
X106707120Y-73347341D01*
X204838187Y-88693310D02*
X200957997Y-84813113D01*
X185820508Y-82482876D02*
X185820501Y-77355868D01*
X89143877Y-77399079D02*
X89501519Y-79427434D01*
X126373879Y-62415338D02*
X126358813Y-61552442D01*
X126373875Y-62415336D02*
X112310401Y-63893473D01*
X170790105Y-76174307D02*
X184638967Y-76174303D01*
X169130103Y-70119172D02*
X169130084Y-74514289D01*
X91162554Y-74516115D02*
X89143877Y-77399079D01*
X200957997Y-84813113D02*
X188150754Y-84813119D01*
X151040095Y-65484299D02*
X153198710Y-67642916D01*
X112310401Y-63893473D02*
X110814454Y-62682066D01*
X131734750Y-55985471D02*
X132324683Y-55975202D01*
X106707111Y-73347331D02*
X92956159Y-75772002D01*
X126358813Y-61552442D02*
X131734750Y-55985471D01*
X146773491Y-55722978D02*
X147833160Y-56746268D01*
X92956159Y-75772002D02*
X91162554Y-74516115D01*
X188150754Y-84813119D02*
X185820508Y-82482876D01*
X185820501Y-77355868D02*
X184638957Y-76174307D01*
X166653853Y-67642926D02*
X169130103Y-70119172D01*
%TO.N,P10*%
X186534028Y-120220997D02*
X186534029Y-137542056D01*
X189760918Y-138911790D02*
X186534020Y-137542056D01*
X168127632Y-131499933D02*
X155181593Y-128031058D01*
X196130756Y-110624270D02*
X186534028Y-120220997D01*
X204988893Y-81073326D02*
X207918394Y-84002828D01*
X192758475Y-141253737D02*
X189760918Y-138911790D01*
X186534027Y-137542061D02*
X173525916Y-132020419D01*
X192780016Y-141270589D02*
X192777668Y-141251403D01*
X173525916Y-132020419D02*
X173524579Y-132017124D01*
X155181593Y-128031058D02*
X155174083Y-128018034D01*
X192777668Y-141251403D02*
X192758475Y-141253737D01*
X203688270Y-149793038D02*
X192780016Y-141270589D01*
X196153564Y-110624270D02*
X196130756Y-110624270D01*
X173524579Y-132017124D02*
X173521267Y-132018442D01*
X207918394Y-84002828D02*
X207918395Y-98859431D01*
X207918395Y-98859431D02*
X196153564Y-110624270D01*
X170265161Y-130636312D02*
X168127630Y-131499937D01*
X173521267Y-132018442D02*
X170265161Y-130636312D01*
%TO.N,VCC*%
X193230289Y-72582763D02*
X199670311Y-72592774D01*
X199670311Y-72592774D02*
X200510288Y-73442788D01*
X192470300Y-73432768D02*
X193230289Y-72582763D01*
%TO.N,GND*%
X192460313Y-75972774D02*
X193220285Y-75122779D01*
X199660275Y-75132789D02*
X200500308Y-75982773D01*
X193220285Y-75122779D02*
X199660275Y-75132789D01*
%TO.N,V3*%
X192452946Y-82952015D02*
X193175362Y-82229642D01*
X199753676Y-82229619D02*
X200489938Y-82965897D01*
X193175362Y-82229642D02*
X199753676Y-82229619D01*
%TO.N,_1_0*%
X191620301Y-73432778D02*
X189620299Y-73422770D01*
%TO.N,_1_13*%
X202860287Y-73452773D02*
X204860301Y-73452770D01*
%TO.N,_1_1*%
X191620305Y-75972760D02*
X189620295Y-75962774D01*
%TO.N,_1_12*%
X202860308Y-75992770D02*
X204860293Y-75992768D01*
%TO.N,_1_2*%
X190837142Y-82179699D02*
X191607969Y-82950550D01*
X190837110Y-79728613D02*
X190837142Y-82179699D01*
X189615639Y-78507089D02*
X190837110Y-79728613D01*
%TO.N,_1_11*%
X204855556Y-78533309D02*
X202979052Y-80409813D01*
X202979052Y-80409813D02*
X202979024Y-82838824D01*
%TD*%
M02*
