M48
; DRILL file {KiCad 7.0.7} date 2024 February 04, Sunday 11:46:47
; FORMAT={-:-/ absolute / inch / decimal}
; #@! TF.CreationDate,2024-02-04T11:46:47-06:00
; #@! TF.GenerationSoftware,Kicad,Pcbnew,7.0.7
; #@! TF.FileFunction,NonPlated,1,2,NPTH
FMAT,2
INCH
; #@! TA.AperFunction,NonPlated,NPTH,ComponentDrill
T1C0.0748
; #@! TA.AperFunction,NonPlated,NPTH,ComponentDrill
T2C0.1181
; #@! TA.AperFunction,NonPlated,NPTH,ComponentDrill
T3C0.1969
%
G90
G05
T1
X3.0315Y-3.3398
X3.1477Y-3.9989
X3.2639Y-4.658
X3.458Y-3.2646
X3.5742Y-3.9237
X3.6904Y-4.5828
X3.7089Y-3.1004
X3.8251Y-3.7595
X3.9413Y-4.4187
X4.1354Y-3.0252
X4.2516Y-3.6843
X4.3678Y-4.3435
X4.4692Y-2.6343
X4.538Y-3.3
X4.6068Y-3.9658
X4.9Y-2.5898
X4.9688Y-3.2555
X5.0376Y-3.9213
X5.3006Y-2.3663
X5.3111Y-3.0355
X5.3216Y-3.7047
X5.7336Y-2.3595
X5.7441Y-3.0287
X5.7546Y-3.6979
X6.037Y-4.1248
X6.0381Y-3.4555
X6.0393Y-2.787
X6.0833Y-5.161
X6.47Y-4.1255
X6.4712Y-3.4563
X6.4724Y-2.7862
X6.5014Y-5.2738
X6.745Y-4.4607
X6.7462Y-3.7914
X6.7474Y-3.1221
X6.8146Y-5.3291
X7.1781Y-4.4614
X7.1793Y-3.7921
X7.1805Y-3.1228
X7.2144Y-5.4955
X7.5303Y-5.6773
X7.8734Y-5.9416
T2
X3.0765Y-3.4818
X3.1927Y-4.1409
X3.2854Y-3.5329
X3.309Y-4.8
X3.4016Y-4.192
X3.4642Y-3.4134
X3.5179Y-4.8511
X3.5805Y-4.0725
X3.6967Y-4.7316
X3.7539Y-3.2424
X3.8701Y-3.9015
X3.9628Y-3.2935
X3.9863Y-4.5606
X4.079Y-3.9526
X4.1416Y-3.174
X4.1952Y-4.6117
X4.2578Y-3.8331
X4.3741Y-4.4923
X4.504Y-2.7791
X4.5728Y-3.4449
X4.6416Y-4.1106
X4.7087Y-2.845
X4.7775Y-3.5108
X4.8463Y-4.1765
X4.8956Y-2.7386
X4.9644Y-3.4044
X5.0332Y-4.0701
X5.3226Y-2.5136
X5.3331Y-3.1828
X5.3436Y-3.852
X5.5207Y-2.5971
X5.5313Y-3.2663
X5.5418Y-3.9355
X5.7162Y-2.5074
X5.7267Y-3.1766
X5.7372Y-3.8458
X6.0564Y-4.2725
X6.0576Y-3.6032
X6.0592Y-2.9346
X6.0638Y-5.3087
X6.2313Y-5.4436
X6.2531Y-4.3594
X6.2543Y-3.6901
X6.2562Y-3.0208
X6.4439Y-5.4112
X6.4501Y-4.2732
X6.4513Y-3.6039
X6.4529Y-2.9339
X6.7645Y-4.6083
X6.7656Y-3.9391
X6.7668Y-3.2698
X6.776Y-5.4729
X6.9245Y-5.6285
X6.9612Y-4.6953
X6.9623Y-4.026
X6.9635Y-3.3567
X7.1395Y-5.6242
X7.1582Y-4.609
X7.1593Y-3.9397
X7.1605Y-3.2705
X7.4558Y-5.8063
X7.5589Y-5.995
X7.7677Y-6.0465
T3
X3.2447Y-3.3022
X3.361Y-3.9613
X3.4772Y-4.6204
X3.9221Y-3.0628
X4.0383Y-3.7219
X4.1546Y-4.3811
X4.6846Y-2.612
X4.7534Y-3.2778
X4.8222Y-3.9435
X5.5171Y-2.3629
X5.5276Y-3.0321
X5.5381Y-3.7013
X6.2535Y-4.1252
X6.2547Y-3.4559
X6.2558Y-2.7866
X6.2923Y-5.2174
X6.9616Y-4.4611
X6.9627Y-3.7918
X6.9639Y-3.1225
X7.0145Y-5.4123
X7.7018Y-5.8095
T0
M30
