%TF.GenerationSoftware,KiCad,Pcbnew,7.0.7*%
%TF.CreationDate,2024-02-04T11:46:41-06:00*%
%TF.ProjectId,main,6d61696e-2e6b-4696-9361-645f70636258,v1.0.0*%
%TF.SameCoordinates,Original*%
%TF.FileFunction,Soldermask,Bot*%
%TF.FilePolarity,Negative*%
%FSLAX46Y46*%
G04 Gerber Fmt 4.6, Leading zero omitted, Abs format (unit mm)*
G04 Created by KiCad (PCBNEW 7.0.7) date 2024-02-04 11:46:41*
%MOMM*%
%LPD*%
G01*
G04 APERTURE LIST*
G04 Aperture macros list*
%AMRoundRect*
0 Rectangle with rounded corners*
0 $1 Rounding radius*
0 $2 $3 $4 $5 $6 $7 $8 $9 X,Y pos of 4 corners*
0 Add a 4 corners polygon primitive as box body*
4,1,4,$2,$3,$4,$5,$6,$7,$8,$9,$2,$3,0*
0 Add four circle primitives for the rounded corners*
1,1,$1+$1,$2,$3*
1,1,$1+$1,$4,$5*
1,1,$1+$1,$6,$7*
1,1,$1+$1,$8,$9*
0 Add four rect primitives between the rounded corners*
20,1,$1+$1,$2,$3,$4,$5,0*
20,1,$1+$1,$4,$5,$6,$7,0*
20,1,$1+$1,$6,$7,$8,$9,0*
20,1,$1+$1,$8,$9,$2,$3,0*%
%AMHorizOval*
0 Thick line with rounded ends*
0 $1 width*
0 $2 $3 position (X,Y) of the first rounded end (center of the circle)*
0 $4 $5 position (X,Y) of the second rounded end (center of the circle)*
0 Add line between two ends*
20,1,$1,$2,$3,$4,$5,0*
0 Add two circle primitives to create the rounded ends*
1,1,$1,$2,$3*
1,1,$1,$4,$5*%
%AMFreePoly0*
4,1,15,1.335355,1.335355,1.350000,1.300000,1.350000,-1.300000,1.335355,-1.335355,1.300000,-1.350000,-0.050000,-1.350000,-0.082160,-1.338285,-1.332160,-0.288285,-1.349812,-0.254331,-1.350000,-0.250000,-1.350000,1.300000,-1.335355,1.335355,-1.300000,1.350000,1.300000,1.350000,1.335355,1.335355,1.335355,1.335355,$1*%
%AMFreePoly1*
4,1,16,-0.214645,0.660355,-0.210957,0.656235,0.289043,0.031235,0.299694,-0.005522,0.289043,-0.031235,-0.210957,-0.656235,-0.244478,-0.674694,-0.250000,-0.675000,-0.500000,-0.675000,-0.535355,-0.660355,-0.550000,-0.625000,-0.550000,0.625000,-0.535355,0.660355,-0.500000,0.675000,-0.250000,0.675000,-0.214645,0.660355,-0.214645,0.660355,$1*%
%AMFreePoly2*
4,1,16,0.535355,0.660355,0.550000,0.625000,0.550000,-0.625000,0.535355,-0.660355,0.500000,-0.675000,-0.650000,-0.675000,-0.685355,-0.660355,-0.700000,-0.625000,-0.689043,-0.593765,-0.214031,0.000000,-0.689043,0.593765,-0.699694,0.630522,-0.681235,0.664043,-0.650000,0.675000,0.500000,0.675000,0.535355,0.660355,0.535355,0.660355,$1*%
%AMFreePoly3*
4,1,15,0.082160,1.338285,1.332160,0.288285,1.349812,0.254331,1.350000,0.250000,1.350000,-1.300000,1.335355,-1.335355,1.300000,-1.350000,-1.300000,-1.350000,-1.335355,-1.335355,-1.350000,-1.300000,-1.350000,1.300000,-1.335355,1.335355,-1.300000,1.350000,0.050000,1.350000,0.082160,1.338285,0.082160,1.338285,$1*%
G04 Aperture macros list end*
%ADD10C,3.100000*%
%ADD11FreePoly0,179.900000*%
%ADD12RoundRect,0.050000X0.802268X1.298602X-0.797730X1.301394X-0.802268X-1.298602X0.797730X-1.301394X0*%
%ADD13FreePoly0,180.900000*%
%ADD14RoundRect,0.050000X0.779482X1.312405X-0.820321X1.287274X-0.779482X-1.312405X0.820321X-1.287274X0*%
%ADD15FreePoly0,190.000000*%
%ADD16RoundRect,0.050000X0.562104X1.419169X-1.013589X1.141332X-0.562104X-1.419169X1.013589X-1.141332X0*%
%ADD17FreePoly0,157.400000*%
%ADD18RoundRect,0.050000X1.238152X0.892737X-0.238984X1.507610X-1.238152X-0.892737X0.238984X-1.507610X0*%
%ADD19FreePoly0,185.900000*%
%ADD20RoundRect,0.050000X0.662132X1.375348X-0.929393X1.210880X-0.662132X-1.375348X0.929393X-1.210880X0*%
%ADD21FreePoly0,164.900000*%
%ADD22RoundRect,0.050000X1.111034X1.046711X-0.433722X1.463518X-1.111034X-1.046711X0.433722X-1.463518X0*%
%ADD23FreePoly0,142.400000*%
%ADD24RoundRect,0.050000X1.427020X0.541860X0.159357X1.518093X-1.427020X-0.541860X-0.159357X-1.518093X0*%
%ADD25HorizOval,1.900000X0.474999X-0.000812X-0.474999X0.000812X0*%
%ADD26FreePoly1,359.902000*%
%ADD27FreePoly2,359.902000*%
%ADD28C,0.900000*%
%ADD29HorizOval,1.900000X-0.474999X0.000812X0.474999X-0.000812X0*%
%ADD30FreePoly2,179.902000*%
%ADD31FreePoly1,179.902000*%
%ADD32RoundRect,0.050000X-0.599214X0.451047X-0.600784X-0.448952X0.599214X-0.451047X0.600784X0.448952X0*%
%ADD33RoundRect,0.050000X-0.643078X0.385941X-0.550565X-0.509292X0.643078X-0.385941X0.550565X0.509292X0*%
%ADD34RoundRect,0.050000X-0.669026X0.338975X-0.512743X-0.547352X0.669026X-0.338975X0.512743X0.547352X0*%
%ADD35FreePoly3,0.100000*%
%ADD36RoundRect,0.050000X-0.797730X-1.301394X0.802268X-1.298602X0.797730X1.301394X-0.802268X1.298602X0*%
%ADD37RoundRect,0.050000X-0.200808X0.722617X-0.749939X0.009557X0.200808X-0.722617X0.749939X-0.009557X0*%
%ADD38RoundRect,0.050000X-0.606994X0.440520X-0.592858X-0.459369X0.606994X-0.440520X0.592858X0.459369X0*%
%ADD39RoundRect,0.050000X-0.380993X0.646022X-0.726859X-0.184867X0.380993X-0.646022X0.726859X0.184867X0*%
%ADD40RoundRect,0.050000X-0.462057X0.590765X-0.696511X-0.278160X0.462057X-0.590765X0.696511X0.278160X0*%
G04 APERTURE END LIST*
D10*
%TO.C,S14*%
X163862097Y-91538065D03*
X158858265Y-93729335D03*
X153862113Y-91520612D03*
D11*
X162133260Y-93735051D03*
D12*
X151087117Y-91515768D03*
%TD*%
D10*
%TO.C,S11*%
X145458895Y-80686542D03*
X140494068Y-82964807D03*
X135460128Y-80843615D03*
D13*
X143768664Y-82913365D03*
D14*
X132685471Y-80887203D03*
%TD*%
D10*
%TO.C,S17*%
X181847256Y-100069466D03*
X176843424Y-102260736D03*
X171847272Y-100052013D03*
D11*
X180118419Y-102266452D03*
D12*
X169072276Y-100047169D03*
%TD*%
D10*
%TO.C,S3*%
X87991475Y-86700117D03*
X83449463Y-89734935D03*
X78143398Y-88436599D03*
D15*
X86674708Y-89166237D03*
D16*
X75410556Y-88918473D03*
%TD*%
D10*
%TO.C,S20*%
X181343561Y-142855358D03*
X175882060Y-142964944D03*
X172111458Y-139012405D03*
D17*
X178905573Y-144223511D03*
D18*
X169549550Y-137945985D03*
%TD*%
D10*
%TO.C,S18*%
X181876910Y-83069485D03*
X176873078Y-85260755D03*
X171876926Y-83052032D03*
D11*
X180148073Y-85266471D03*
D12*
X169101930Y-83047188D03*
%TD*%
D10*
%TO.C,S8*%
X126095210Y-86471420D03*
X121347840Y-89173729D03*
X116148182Y-87499345D03*
D19*
X124605491Y-88837083D03*
D20*
X113387882Y-87784595D03*
%TD*%
D10*
%TO.C,S5*%
X108149095Y-97361795D03*
X103607083Y-100396613D03*
X98301018Y-99098277D03*
D15*
X106832328Y-99827915D03*
D16*
X95568176Y-99580151D03*
%TD*%
D10*
%TO.C,S19*%
X163675125Y-137445312D03*
X158274652Y-138266829D03*
X154020399Y-134840267D03*
D21*
X161436575Y-139119981D03*
D22*
X151341212Y-134117367D03*
%TD*%
D10*
%TO.C,S7*%
X127842661Y-103381359D03*
X123095291Y-106083668D03*
X117895633Y-104409284D03*
D19*
X126352942Y-105747022D03*
D20*
X115135333Y-104694534D03*
%TD*%
D10*
%TO.C,S4*%
X111101101Y-114103510D03*
X106559089Y-117138328D03*
X101253024Y-115839992D03*
D15*
X109784334Y-116569630D03*
D16*
X98520182Y-116321866D03*
%TD*%
D10*
%TO.C,S2*%
X90943481Y-103441848D03*
X86401469Y-106476666D03*
X81095404Y-105178330D03*
D15*
X89626714Y-105907968D03*
D16*
X78362562Y-105660204D03*
%TD*%
D10*
%TO.C,S12*%
X145191868Y-63688633D03*
X140227041Y-65966898D03*
X135193101Y-63845706D03*
D13*
X143501637Y-65915456D03*
D14*
X132418444Y-63889294D03*
%TD*%
D10*
%TO.C,S6*%
X105197064Y-80620024D03*
X100655052Y-83654842D03*
X95348987Y-82356506D03*
D15*
X103880297Y-83086144D03*
D16*
X92616145Y-82838380D03*
%TD*%
D10*
%TO.C,S16*%
X181817544Y-117069445D03*
X176813712Y-119260715D03*
X171817560Y-117051992D03*
D11*
X180088707Y-119266431D03*
D12*
X169042564Y-117047148D03*
%TD*%
D10*
%TO.C,S21*%
X197299481Y-153581950D03*
X191995713Y-152274261D03*
X189376584Y-147480498D03*
D23*
X194590462Y-154272487D03*
D24*
X187177981Y-145787346D03*
%TD*%
D10*
%TO.C,S1*%
X93895509Y-120183610D03*
X89353497Y-123218428D03*
X84047432Y-121920092D03*
D15*
X92578742Y-122649730D03*
D16*
X81314590Y-122401966D03*
%TD*%
D10*
%TO.C,S9*%
X124347717Y-69561438D03*
X119600347Y-72263747D03*
X114400689Y-70589363D03*
D19*
X122857998Y-71927101D03*
D20*
X111640389Y-70874613D03*
%TD*%
D10*
%TO.C,S13*%
X163832438Y-108538011D03*
X158828606Y-110729281D03*
X153832454Y-108520558D03*
D11*
X162103601Y-110734997D03*
D12*
X151057458Y-108515714D03*
%TD*%
D10*
%TO.C,S10*%
X145725933Y-97684436D03*
X140761106Y-99962701D03*
X135727166Y-97841509D03*
D13*
X144035702Y-99911259D03*
D14*
X132952509Y-97885097D03*
%TD*%
D25*
%TO.C,xiao*%
X189149282Y-73426458D03*
D26*
X191624278Y-73430691D03*
D27*
X192469276Y-73432136D03*
D28*
X193982274Y-73434724D03*
D25*
X189144937Y-75966454D03*
D26*
X191619933Y-75970687D03*
D27*
X192464932Y-75972132D03*
D28*
X193977930Y-75974720D03*
D25*
X189140593Y-78506450D03*
D26*
X191607994Y-82950677D03*
D27*
X192452993Y-82952122D03*
D28*
X193965991Y-82954710D03*
D25*
X189136248Y-81046447D03*
X189131904Y-83586443D03*
X189127559Y-86126439D03*
X189123215Y-88666435D03*
D29*
X205313190Y-88694126D03*
X205317535Y-86154130D03*
X205321879Y-83614134D03*
X205326224Y-81074137D03*
D28*
X200489981Y-82965869D03*
D30*
X202002979Y-82968456D03*
D31*
X202847978Y-82969902D03*
D29*
X205330568Y-78534141D03*
D28*
X200501920Y-75985879D03*
D30*
X202014918Y-75988467D03*
D31*
X202859917Y-75989912D03*
D29*
X205334913Y-75994145D03*
D28*
X200506265Y-73445883D03*
D30*
X202019262Y-73448470D03*
D31*
X202864261Y-73449916D03*
D29*
X205339257Y-73454149D03*
%TD*%
D32*
%TO.C,D16*%
X169079625Y-110147223D03*
X169073865Y-113447217D03*
%TD*%
D33*
%TO.C,D9*%
X110955981Y-64008608D03*
X111295197Y-67291128D03*
%TD*%
D34*
%TO.C,D1*%
X80141063Y-115602461D03*
X80714101Y-118852327D03*
%TD*%
D10*
%TO.C,S15*%
X153904871Y-74538089D03*
X158908703Y-76729359D03*
X163904855Y-74520636D03*
D35*
X162183698Y-76723643D03*
D36*
X151129875Y-74542932D03*
%TD*%
D37*
%TO.C,D21*%
X191407781Y-140335818D03*
X189394301Y-142950374D03*
%TD*%
D34*
%TO.C,D6*%
X91442598Y-76038886D03*
X92015636Y-79288752D03*
%TD*%
D38*
%TO.C,D10*%
X132869109Y-90985547D03*
X132920943Y-94285139D03*
%TD*%
D39*
%TO.C,D20*%
X172224281Y-131585450D03*
X170956107Y-134632044D03*
%TD*%
D40*
%TO.C,D19*%
X153162813Y-127462121D03*
X152303149Y-130648181D03*
%TD*%
D34*
%TO.C,D2*%
X77189013Y-98860721D03*
X77762051Y-102110587D03*
%TD*%
%TO.C,D3*%
X74236991Y-82118978D03*
X74810029Y-85368844D03*
%TD*%
D38*
%TO.C,D12*%
X132335082Y-56989738D03*
X132386916Y-60289330D03*
%TD*%
D34*
%TO.C,D4*%
X97346652Y-109522311D03*
X97919690Y-112772177D03*
%TD*%
D32*
%TO.C,D18*%
X169138937Y-76147262D03*
X169133177Y-79447256D03*
%TD*%
%TO.C,D14*%
X151124164Y-84615825D03*
X151118404Y-87915819D03*
%TD*%
%TO.C,D13*%
X151094491Y-101615804D03*
X151088731Y-104915798D03*
%TD*%
%TO.C,D15*%
X151153831Y-67615853D03*
X151148071Y-70915847D03*
%TD*%
%TO.C,D17*%
X169109311Y-93147236D03*
X169103551Y-96447230D03*
%TD*%
D34*
%TO.C,D5*%
X94394608Y-92780626D03*
X94967646Y-96030492D03*
%TD*%
D38*
%TO.C,D11*%
X132602101Y-73987639D03*
X132653935Y-77287231D03*
%TD*%
D33*
%TO.C,D8*%
X112703449Y-80918553D03*
X113042665Y-84201073D03*
%TD*%
%TO.C,D7*%
X114450938Y-97828516D03*
X114790154Y-101111036D03*
%TD*%
M02*
