%TF.GenerationSoftware,KiCad,Pcbnew,7.0.7*%
%TF.CreationDate,2024-02-04T11:46:41-06:00*%
%TF.ProjectId,main,6d61696e-2e6b-4696-9361-645f70636258,v1.0.0*%
%TF.SameCoordinates,Original*%
%TF.FileFunction,Paste,Bot*%
%TF.FilePolarity,Positive*%
%FSLAX46Y46*%
G04 Gerber Fmt 4.6, Leading zero omitted, Abs format (unit mm)*
G04 Created by KiCad (PCBNEW 7.0.7) date 2024-02-04 11:46:41*
%MOMM*%
%LPD*%
G01*
G04 APERTURE LIST*
G04 Aperture macros list*
%AMRotRect*
0 Rectangle, with rotation*
0 The origin of the aperture is its center*
0 $1 length*
0 $2 width*
0 $3 Rotation angle, in degrees counterclockwise*
0 Add horizontal line*
21,1,$1,$2,0,0,$3*%
%AMFreePoly0*
4,1,6,1.300000,-1.300000,-0.050000,-1.300000,-1.300000,-0.250000,-1.300000,1.300000,1.300000,1.300000,1.300000,-1.300000,1.300000,-1.300000,$1*%
G04 Aperture macros list end*
%ADD10FreePoly0,179.900000*%
%ADD11RotRect,1.600000X2.600000X179.900000*%
%ADD12FreePoly0,180.900000*%
%ADD13RotRect,1.600000X2.600000X180.900000*%
%ADD14FreePoly0,190.000000*%
%ADD15RotRect,1.600000X2.600000X190.000000*%
%ADD16FreePoly0,157.400000*%
%ADD17RotRect,1.600000X2.600000X157.400000*%
%ADD18FreePoly0,185.900000*%
%ADD19RotRect,1.600000X2.600000X185.900000*%
%ADD20FreePoly0,164.900000*%
%ADD21RotRect,1.600000X2.600000X164.900000*%
%ADD22FreePoly0,142.400000*%
%ADD23RotRect,1.600000X2.600000X142.400000*%
%ADD24RotRect,0.900000X1.200000X269.900000*%
%ADD25RotRect,0.900000X1.200000X275.900000*%
%ADD26RotRect,0.900000X1.200000X280.000000*%
%ADD27RotRect,1.600000X2.600000X0.100000*%
%ADD28RotRect,0.900000X1.200000X232.400000*%
%ADD29RotRect,0.900000X1.200000X270.900000*%
%ADD30RotRect,0.900000X1.200000X247.400000*%
%ADD31RotRect,0.900000X1.200000X254.900000*%
G04 APERTURE END LIST*
D10*
%TO.C,S14*%
X162133260Y-93735051D03*
D11*
X151087117Y-91515768D03*
%TD*%
D12*
%TO.C,S11*%
X143768664Y-82913365D03*
D13*
X132685471Y-80887203D03*
%TD*%
D10*
%TO.C,S17*%
X180118419Y-102266452D03*
D11*
X169072276Y-100047169D03*
%TD*%
D14*
%TO.C,S3*%
X86674708Y-89166237D03*
D15*
X75410556Y-88918473D03*
%TD*%
D16*
%TO.C,S20*%
X178905573Y-144223511D03*
D17*
X169549550Y-137945985D03*
%TD*%
D10*
%TO.C,S18*%
X180148073Y-85266471D03*
D11*
X169101930Y-83047188D03*
%TD*%
D18*
%TO.C,S8*%
X124605491Y-88837083D03*
D19*
X113387882Y-87784595D03*
%TD*%
D14*
%TO.C,S5*%
X106832328Y-99827915D03*
D15*
X95568176Y-99580151D03*
%TD*%
D20*
%TO.C,S19*%
X161436575Y-139119981D03*
D21*
X151341212Y-134117367D03*
%TD*%
D18*
%TO.C,S7*%
X126352942Y-105747022D03*
D19*
X115135333Y-104694534D03*
%TD*%
D14*
%TO.C,S4*%
X109784334Y-116569630D03*
D15*
X98520182Y-116321866D03*
%TD*%
D14*
%TO.C,S2*%
X89626714Y-105907968D03*
D15*
X78362562Y-105660204D03*
%TD*%
D12*
%TO.C,S12*%
X143501637Y-65915456D03*
D13*
X132418444Y-63889294D03*
%TD*%
D14*
%TO.C,S6*%
X103880297Y-83086144D03*
D15*
X92616145Y-82838380D03*
%TD*%
D10*
%TO.C,S16*%
X180088707Y-119266431D03*
D11*
X169042564Y-117047148D03*
%TD*%
D22*
%TO.C,S21*%
X194590462Y-154272487D03*
D23*
X187177981Y-145787346D03*
%TD*%
D14*
%TO.C,S1*%
X92578742Y-122649730D03*
D15*
X81314590Y-122401966D03*
%TD*%
D18*
%TO.C,S9*%
X122857998Y-71927101D03*
D19*
X111640389Y-70874613D03*
%TD*%
D10*
%TO.C,S13*%
X162103601Y-110734997D03*
D11*
X151057458Y-108515714D03*
%TD*%
D12*
%TO.C,S10*%
X144035702Y-99911259D03*
D13*
X132952509Y-97885097D03*
%TD*%
D24*
%TO.C,D16*%
X169079625Y-110147223D03*
X169073865Y-113447217D03*
%TD*%
D25*
%TO.C,D9*%
X110955981Y-64008608D03*
X111295197Y-67291128D03*
%TD*%
D26*
%TO.C,D1*%
X80141063Y-115602461D03*
X80714101Y-118852327D03*
%TD*%
D27*
%TO.C,S15*%
X151129875Y-74542932D03*
%TD*%
D28*
%TO.C,D21*%
X191407781Y-140335818D03*
X189394301Y-142950374D03*
%TD*%
D26*
%TO.C,D6*%
X91442598Y-76038886D03*
X92015636Y-79288752D03*
%TD*%
D29*
%TO.C,D10*%
X132869109Y-90985547D03*
X132920943Y-94285139D03*
%TD*%
D30*
%TO.C,D20*%
X172224281Y-131585450D03*
X170956107Y-134632044D03*
%TD*%
D31*
%TO.C,D19*%
X153162813Y-127462121D03*
X152303149Y-130648181D03*
%TD*%
D26*
%TO.C,D2*%
X77189013Y-98860721D03*
X77762051Y-102110587D03*
%TD*%
%TO.C,D3*%
X74236991Y-82118978D03*
X74810029Y-85368844D03*
%TD*%
D29*
%TO.C,D12*%
X132335082Y-56989738D03*
X132386916Y-60289330D03*
%TD*%
D26*
%TO.C,D4*%
X97346652Y-109522311D03*
X97919690Y-112772177D03*
%TD*%
D24*
%TO.C,D18*%
X169138937Y-76147262D03*
X169133177Y-79447256D03*
%TD*%
%TO.C,D14*%
X151124164Y-84615825D03*
X151118404Y-87915819D03*
%TD*%
%TO.C,D13*%
X151094491Y-101615804D03*
X151088731Y-104915798D03*
%TD*%
%TO.C,D15*%
X151153831Y-67615853D03*
X151148071Y-70915847D03*
%TD*%
%TO.C,D17*%
X169109311Y-93147236D03*
X169103551Y-96447230D03*
%TD*%
D26*
%TO.C,D5*%
X94394608Y-92780626D03*
X94967646Y-96030492D03*
%TD*%
D29*
%TO.C,D11*%
X132602101Y-73987639D03*
X132653935Y-77287231D03*
%TD*%
D25*
%TO.C,D8*%
X112703449Y-80918553D03*
X113042665Y-84201073D03*
%TD*%
%TO.C,D7*%
X114450938Y-97828516D03*
X114790154Y-101111036D03*
%TD*%
M02*
