M48
; DRILL file {KiCad 7.0.7} date 2024 February 04, Sunday 11:46:47
; FORMAT={-:-/ absolute / inch / decimal}
; #@! TF.CreationDate,2024-02-04T11:46:47-06:00
; #@! TF.GenerationSoftware,Kicad,Pcbnew,7.0.7
; #@! TF.FileFunction,Plated,1,2,PTH
FMAT,2
INCH
; #@! TA.AperFunction,Plated,PTH,ViaDrill
T1C0.0157
; #@! TA.AperFunction,Plated,PTH,ComponentDrill
T2C0.0157
; #@! TA.AperFunction,Plated,PTH,ComponentDrill
T3C0.0394
%
G90
G05
T1
X2.9767Y-3.2241
X2.9957Y-3.6543
X3.1122Y-4.3126
X3.1294Y-3.8735
X3.2278Y-4.977
X3.2337Y-4.5355
X3.267Y-3.4456
X3.3832Y-4.1043
X3.4992Y-4.7623
X3.5891Y-2.9337
X3.6728Y-3.413
X3.7048Y-3.5901
X3.789Y-4.0741
X3.8225Y-4.2506
X3.9054Y-4.7392
X3.9442Y-3.205
X4.0603Y-3.8638
X4.1764Y-4.5217
X4.3628Y-2.4678
X4.4105Y-2.9428
X4.4309Y-3.1269
X4.4734Y-3.5969
X4.5Y-3.7922
X4.5463Y-4.2792
X4.6954Y-2.7561
X4.7656Y-3.4237
X4.8351Y-4.085
X5.212Y-2.2013
X5.2138Y-2.6737
X5.22Y-2.8701
X5.2262Y-3.3428
X5.2277Y-3.5393
X5.2363Y-4.0101
X5.5205Y-2.5096
X5.5316Y-3.1761
X5.5375Y-3.845
X5.9134Y-5.4319
X5.9422Y-4.4305
X5.9465Y-2.5781
X5.9477Y-3.7608
X5.948Y-3.9301
X5.9492Y-3.2647
X5.9497Y-3.0289
X6.1092Y-5.0401
X6.2529Y-5.3574
X6.254Y-3.6002
X6.254Y-4.2683
X6.254Y-2.9289
X6.567Y-4.61
X6.6108Y-5.5783
X6.6555Y-4.2592
X6.6563Y-4.0399
X6.6563Y-3.3852
X6.6575Y-3.5765
X6.6587Y-2.9336
X6.8317Y-5.1975
X6.9584Y-5.5453
X6.9631Y-4.6041
X6.9631Y-3.936
X6.9631Y-3.2647
X7.268Y-5.8659
X7.5897Y-5.5611
X7.6144Y-5.9226
T2
X7.6365Y-3.2659
X7.6369Y-2.9911
X7.6371Y-2.8911
X7.8933Y-3.2664
X7.8938Y-2.9916
X7.8939Y-2.8916
T3
X7.4645Y-3.4908
X7.4647Y-3.3908
X7.4648Y-3.2908
X7.465Y-3.1908
X7.4652Y-3.0908
X7.4654Y-2.9908
X7.4655Y-2.8908
X8.0645Y-3.4919
X8.0647Y-3.3919
X8.0648Y-3.2919
X8.065Y-3.1919
X8.0652Y-3.0919
X8.0654Y-2.9919
X8.0655Y-2.8919
T0
M30
